<?xml version="1.0" encoding="utf-8"?>
<!-- Generator: Adobe Illustrator 27.5.0, SVG Export Plug-In . SVG Version: 6.00 Build 0)  -->
<svg version="1.1" id="Layer_1" xmlns="http://www.w3.org/2000/svg" xmlns:xlink="http://www.w3.org/1999/xlink" x="0px" y="0px"
	 viewBox="0 0 3500 2000" style="enable-background:new 0 0 3500 2000;" xml:space="preserve">
<rect style="fill:#FFFFFF;" width="3500" height="2000"/>
<g>
	<path style="fill:#80C0FF;" d="M1636.037,1723.25c-34.271-52.904-84.058-95.623-141.555-121.458
		c-0.988,25.707-0.167,53.26,9.849,76.956c4.477,10.59,10.612,20.383,16.721,30.123c4.996,7.967,9.992,15.934,14.989,23.901
		c-43.691-17.664-93.819-26.184-140.57-20.247c21.935,38.737,56.599,70.149,96.836,89.193c-32.349-1.611-66.549,2.588-96.535,14.833
		c11.672,12.8,24.947,23.124,39.379,32.704h240.04C1673.331,1803.577,1660.892,1761.621,1636.037,1723.25z"/>
	<g>
		<path style="fill:#102A54;" d="M1675.769,1823.224c-0.144,0-0.287-0.062-0.386-0.181l-181.422-219.038
			c-0.176-0.213-0.146-0.528,0.066-0.704c0.212-0.177,0.528-0.147,0.704,0.065l181.422,219.038c0.176,0.213,0.146,0.528-0.066,0.704
			C1675.994,1823.186,1675.881,1823.224,1675.769,1823.224z"/>
		<path style="fill:#102A54;" d="M1656.744,1834.657c-0.077,0-0.156-0.018-0.229-0.056
			c-83.842-43.378-170.538-88.232-260.896-120.858c-0.26-0.094-0.394-0.381-0.3-0.641c0.093-0.26,0.381-0.392,0.64-0.301
			c90.419,32.649,177.145,77.52,261.016,120.911c0.245,0.127,0.341,0.429,0.214,0.674
			C1657.1,1834.559,1656.925,1834.657,1656.744,1834.657z"/>
		<path style="fill:#102A54;" d="M1606.672,1830.464c-0.005,0-0.01,0-0.016,0c-69.547-2.082-139.937-6.56-209.214-13.308
			c-0.275-0.027-0.476-0.271-0.449-0.547c0.026-0.274,0.273-0.471,0.546-0.449c69.255,6.747,139.623,11.223,209.147,13.304
			c0.276,0.009,0.493,0.239,0.485,0.515C1607.163,1830.25,1606.941,1830.464,1606.672,1830.464z"/>
	</g>
</g>
<g>
	<path style="fill:#80C0FF;" d="M2111.921,1809.909c-15.301-47.346-12.11-99.533,3.662-146.724
		c15.772-47.192,43.568-89.693,76.362-127.114c1.463,53.338,6.317,107.726-9.884,158.565c23.549-34.848,46.52-70.312,75.089-101.178
		c28.569-30.866,62.471-57.676,101.737-72.747c10.727,88.111-28.068,179.784-95.817,237.131
		c48.321-34.206,110.787-49.957,169.636-43.501c-11.179,20.61-23.286,39.739-38.145,57.876
		c-14.858,18.137-33.098,33.967-54.647,43.205c33.91-14.223,72.395-12.962,109.157-12.105
		c-6.527,15.736-14.462,30.515-24.316,44.411h-294.19C2122.751,1836.499,2116.128,1822.927,2111.921,1809.909z"/>
	<path style="fill:#102A54;" d="M2149.255,1814.969c-0.13,0-0.261-0.051-0.358-0.151c-0.192-0.198-0.188-0.515,0.01-0.707
		c64.122-62.316,112.173-137.548,164.594-231.335c12.981-23.227,28.972-45.39,45.023-62.407c0.188-0.201,0.505-0.211,0.706-0.021
		c0.201,0.189,0.21,0.506,0.021,0.706c-15.996,16.96-31.935,39.053-44.877,62.21c-52.463,93.863-100.561,169.163-164.77,231.563
		C2149.506,1814.922,2149.381,1814.969,2149.255,1814.969z"/>
	<path style="fill:#102A54;" d="M2142.33,1835.421c-0.229,0-0.435-0.157-0.487-0.39c-0.062-0.269,0.107-0.537,0.377-0.598
		c20.566-4.666,40.076-12.221,61.624-20.89c76.695-30.854,153.502-64.404,228.286-99.72c0.25-0.114,0.549-0.012,0.666,0.238
		c0.118,0.25,0.011,0.548-0.238,0.666c-74.802,35.323-151.627,68.882-228.341,99.743c-21.589,8.685-41.138,16.255-61.776,20.937
		C2142.403,1835.417,2142.366,1835.421,2142.33,1835.421z"/>
	<path style="fill:#102A54;" d="M2105.431,1812.89c-0.069,0-0.14-0.015-0.206-0.045c-0.252-0.113-0.363-0.41-0.249-0.661
		c20.203-44.631,32.041-93.186,43.488-140.141c10.717-43.954,21.798-89.404,39.725-131.639c0.106-0.255,0.404-0.373,0.655-0.265
		c0.254,0.107,0.373,0.401,0.265,0.655c-17.895,42.16-28.966,87.57-39.673,131.484c-11.459,47.001-23.308,95.601-43.55,140.316
		C2105.803,1812.78,2105.621,1812.89,2105.431,1812.89z"/>
	<path style="fill:#102A54;" d="M2172.583,1833.961c-0.274,0-0.497-0.221-0.5-0.495c-0.003-0.276,0.22-0.502,0.495-0.505
		c84.115-0.76,181.643-3.627,274.622-28.185c0.271-0.074,0.541,0.09,0.611,0.355c0.07,0.268-0.089,0.541-0.355,0.611
		c-93.092,24.587-190.692,27.457-274.868,28.218C2172.586,1833.961,2172.584,1833.961,2172.583,1833.961z"/>
</g>
<g>
	<path style="fill:#F4F7FD;" d="M940.401,1457.118c24.77,27.49,52.559,29.066,99.795,45.77
		c70.918,25.078,161.19,100.149,117.272,185.179c-17.659,34.189-55.539,53.517-93.166,61.572
		c-76.329,16.34-158.958-6.874-215.747-60.397c-48.485-45.696-76.887-112.408-75.823-179.101c0-0.012,0-0.025,0.001-0.037
		c0.68-41.532,21.982-111.687,61.326-133.03c47.176-25.586,66.279,13.415,85.68,49.573
		C926.632,1439.496,933.396,1449.344,940.401,1457.118z"/>
	<path style="fill:#F4F7FD;" d="M655.237,581.692c-66.153,85.769-118.71,219.696-47.268,318.075
		c43.764,60.265,129.661,93.94,198.285,54.964c54.154-30.76,75.63-91.567,108.405-140.797
		c36.052-54.151,80.984-81.751,141.765-102.991c76.696-26.802,206.522-93.934,138.812-196.002
		c-14.04-21.165-34.901-36.935-56.851-49.712c-132.36-77.045-301.436-46.165-416.861,47.682
		C698.468,531.657,675.714,555.144,655.237,581.692z"/>
	<path style="fill:#F4F7FD;" d="M2682.975,867.043c-98.998,90.372-74.243,243.959-138.277,354.513
		c-17.884,30.877-40.483,59.468-52.334,93.125c-24.927,70.793,23.64,135.949,93.553,149.326
		c68.332,13.075,146.046-9.482,206.348-41.289c136.973-72.246,184.187-244.047,201.656-386.811
		c6.542-53.462,3.418-110.11-22.441-157.365c-57.866-105.741-197.848-85.137-278.816-19.814
		C2689.307,861.435,2686.08,864.208,2682.975,867.043z"/>
	<path style="fill:#F4F7FD;" d="M2783.092,496.324c-4.817,6.34-8.765,13.495-11.605,21.444
		c-53.713,150.326,247.753,121.553,167.133-15.394C2906.074,447.09,2819.609,448.267,2783.092,496.324z"/>
</g>
<g>
	<defs>
		<path id="XMLID_13_" d="M1521.645,1846.756c0,0,216.338-198.026,61.187-347.352c-27.59-26.554-66.963-36.978-104.135-27.781
			c-56.664,14.019-152.048,33.488-230.676,29.108c-81.247-4.526-133.991-87.676-104.143-163.377l7.354-18.653
			c5.628-14.273,1.747-30.542-9.718-40.738l-16.761-14.906c-10.466-17.443-9.529-39.445,2.38-55.936l3.57-4.943l-38.691-31.104
			c-4.313-3.467-6.821-8.702-6.821-14.235l0,0c0-7.322,4.365-13.934,11.103-16.8c15.021-6.389,40.032-20.181,40.655-41.376
			l-112.06-68.037c-7.655-4.648-11.393-13.738-9.221-22.426l0,0c1.603-6.411,6.201-11.646,12.352-14.064
			c41.363-16.259,199.8-85.132,192.814-183.713c-8.031-113.333-7.179-498.32,564.096-414.363s385.226,489.675,257.348,762.917
			c-96.784,206.8,157.508,687.78,157.508,687.78H1521.645z"/>
	</defs>
	<use xlink:href="#XMLID_13_"  style="overflow:visible;fill:#CCE6FF;"/>
	<clipPath id="XMLID_00000002376331504835278560000000164739492982137751_">
		<use xlink:href="#XMLID_13_"  style="overflow:visible;"/>
	</clipPath>
	<path style="clip-path:url(#XMLID_00000002376331504835278560000000164739492982137751_);fill:#FFFFFF;" d="M1162.522,1095.271
		h344.097c-19.794-28.797-59.501-45.433-92.772-34.75c-7.046-37.946-45.247-67.423-83.74-64.615
		c-38.492,2.808-72.011,37.517-73.475,76.084c-8.854-13.624-33.116-11.852-39.896,2.915
		C1194.816,1063.246,1168.316,1071.129,1162.522,1095.271z"/>
	<path style="clip-path:url(#XMLID_00000002376331504835278560000000164739492982137751_);fill:#FFFFFF;" d="M2197.771,867.173
		h-389.13c18.046-37.401,52.891-56.37,92.694-44.526c8.096-27.088,26.496-52.882,53.383-61.621
		c26.888-8.739,61.445,5.742,67.476,33.364c12.97-14.942,35.721-20.442,54.085-13.075c18.364,7.367,31.006,27.066,30.053,46.829
		c11.498-17.327,35.672-24.942,55.025-17.334C2180.71,818.418,2201.149,846.655,2197.771,867.173z"/>
	<path style="clip-path:url(#XMLID_00000002376331504835278560000000164739492982137751_);fill:#FFFFFF;" d="M1608.419,668.815
		h-275.628c11.684-21.606,36.79-35.555,60.635-29.657c10.508-27.222,38.593-47.372,67.75-46.235
		c29.157,1.137,56.425,25.129,59.056,54.19c16.038-9.242,34.276-16.38,52.674-14.34S1606.266,650.429,1608.419,668.815z"/>
	<path style="clip-path:url(#XMLID_00000002376331504835278560000000164739492982137751_);fill:#FFFFFF;" d="M2122.191,1519.279
		h-428.12c28.371-31.56,70.74-49.951,111.355-37.649c-12.929-36.807,11.828-82.1,49.79-91.09
		c37.962-8.99,80.402,20.389,85.354,59.085c10.382-30.883,36.67-60.419,69.228-59.177c22.532,0.86,41.905,16.108,57.134,32.737
		C2088.677,1446.93,2111.278,1488.988,2122.191,1519.279z"/>
	<path style="clip-path:url(#XMLID_00000002376331504835278560000000164739492982137751_);fill:#FFFFFF;" d="M1372.437,1326.349
		h-124.013c8.391-6.082,14.728-7.315,25.084-7.033c-5.82-0.163-1.962-15.404-0.74-18.193c5.664-12.934,20.062-15.198,32.458-11.793
		c8.139,2.236,36.965,16.162,25.034,26.849c5.802-5.197,14.24-7.284,21.796-5.39
		C1359.611,1312.681,1369.77,1319.03,1372.437,1326.349z"/>
</g>
<path style="fill:#80C0FF;" d="M1180.968,701.885c-4.032-0.005-8.069-0.036-12-0.091l0.028-2c3.921,0.056,7.95,0.086,11.973,0.091
	L1180.968,701.885z M1192.964,701.828l-0.021-2c3.947-0.042,7.938-0.107,11.974-0.195l0.044,2
	C1200.917,701.72,1196.918,701.785,1192.964,701.828z M1156.971,701.542c-4.04-0.113-8.075-0.257-11.994-0.427l0.087-1.998
	c3.909,0.169,7.934,0.313,11.963,0.426L1156.971,701.542z M1216.953,701.307l-0.064-1.999c3.95-0.127,7.94-0.275,11.969-0.444
	l0.084,1.998C1224.906,701.031,1220.909,701.18,1216.953,701.307z M1132.99,700.498c-4.054-0.244-8.083-0.523-11.977-0.829
	l0.157-1.994c3.881,0.306,7.898,0.584,11.939,0.827L1132.99,700.498z M1240.925,700.303l-0.103-1.997
	c3.951-0.203,7.938-0.425,11.959-0.666l0.12,1.996C1248.874,699.878,1244.881,700.101,1240.925,700.303z M1264.871,698.869
	l-0.136-1.995c3.951-0.27,7.934-0.558,11.948-0.864l0.152,1.994C1272.815,698.31,1268.828,698.599,1264.871,698.869z
	 M1109.055,698.604c-4.047-0.403-8.063-0.85-11.936-1.329l0.245-1.985c3.857,0.477,7.857,0.921,11.889,1.323L1109.055,698.604z
	 M1288.791,697.047l-0.167-1.993c3.95-0.331,7.928-0.679,11.934-1.044l0.182,1.992
	C1296.729,696.367,1292.746,696.716,1288.791,697.047z M1085.217,695.648c-4.05-0.61-8.039-1.274-11.854-1.972l0.359-1.967
	c3.795,0.693,7.762,1.354,11.792,1.961L1085.217,695.648z M1312.679,694.873l-0.195-1.99c3.948-0.387,7.92-0.79,11.918-1.209
	l0.208,1.989C1320.608,694.081,1316.631,694.485,1312.679,694.873z M1336.535,692.373l-0.221-1.988
	c3.944-0.439,7.912-0.893,11.902-1.363l0.233,1.986C1344.455,691.479,1340.483,691.934,1336.535,692.373z M1061.579,691.304
	c-4.028-0.891-7.96-1.849-11.686-2.847l0.518-1.932c3.698,0.991,7.601,1.942,11.6,2.826L1061.579,691.304z M1360.356,689.573
	l-0.245-1.985c3.941-0.488,7.903-0.99,11.886-1.506l0.257,1.983C1368.267,688.583,1364.301,689.085,1360.356,689.573z
	 M1384.142,686.491l-0.269-1.982c3.938-0.533,7.894-1.08,11.869-1.64l0.279,1.981
	C1392.042,685.41,1388.083,685.958,1384.142,686.491z M1038.352,685.037c-3.962-1.297-7.771-2.685-11.321-4.125l0.752-1.854
	c3.507,1.423,7.272,2.795,11.191,4.079L1038.352,685.037z M1407.891,683.144l-0.29-1.979c3.932-0.576,7.882-1.165,11.85-1.767
	l0.3,1.978C1415.78,681.979,1411.826,682.568,1407.891,683.144z M1431.603,679.546l-0.31-1.976
	c3.927-0.616,7.871-1.245,11.831-1.887l0.32,1.974C1439.48,678.3,1435.533,678.93,1431.603,679.546z M1016.055,675.894
	c-3.763-1.942-7.263-4.016-10.405-6.165l1.129-1.651c3.074,2.103,6.503,4.134,10.193,6.038L1016.055,675.894z M1455.277,675.711
	l-0.329-1.973c3.922-0.655,7.86-1.323,11.813-2.002l0.339,1.971C1463.144,674.387,1459.203,675.055,1455.277,675.711z
	 M1478.912,671.648l-0.349-1.97c3.917-0.692,7.849-1.397,11.794-2.113l0.357,1.968
	C1486.767,670.25,1482.832,670.954,1478.912,671.648z M1502.508,667.364l-0.366-1.966c3.912-0.729,7.836-1.468,11.774-2.22
	l0.375,1.965C1510.35,665.894,1506.422,666.635,1502.508,667.364z M1526.064,662.87l-0.384-1.963
	c3.907-0.763,7.825-1.537,11.755-2.322l0.392,1.961C1533.895,661.332,1529.974,662.106,1526.064,662.87z M996.229,662.091
	c-3.051-2.973-5.642-6.143-7.701-9.423l1.694-1.063c1.974,3.146,4.464,6.192,7.402,9.054L996.229,662.091z M1549.581,658.171
	l-0.4-1.959c3.9-0.797,7.812-1.604,11.734-2.422l0.408,1.958C1557.398,656.566,1553.484,657.374,1549.581,658.171z
	 M1573.055,653.274l-0.417-1.956c3.895-0.829,7.8-1.669,11.714-2.52l0.425,1.954C1580.86,651.604,1576.953,652.444,1573.055,653.274
	z M1596.49,648.184l-0.433-1.953c3.889-0.861,7.787-1.733,11.693-2.615l0.44,1.951C1604.281,646.45,1600.38,647.322,1596.49,648.184
	z M1619.882,642.904l-0.448-1.949c3.882-0.893,7.773-1.795,11.672-2.708l0.456,1.947
	C1627.66,641.108,1623.767,642.011,1619.882,642.904z M983.592,641.5l-0.062-0.231c-0.91-3.417-1.372-6.991-1.372-10.623
	c0-0.43,0.006-0.862,0.019-1.295l1.999,0.058c-0.012,0.414-0.018,0.826-0.018,1.237c0,3.458,0.439,6.859,1.305,10.108l0.06,0.223
	L983.592,641.5z M1643.232,637.439l-0.463-1.945c3.876-0.924,7.759-1.857,11.65-2.799l0.471,1.943
	C1650.997,635.581,1647.11,636.515,1643.232,637.439z M1666.538,631.792l-0.479-1.941c3.87-0.954,7.746-1.917,11.629-2.889
	l0.486,1.94C1674.288,629.875,1670.409,630.839,1666.538,631.792z M1689.799,625.967l-0.493-1.938
	c3.862-0.983,7.731-1.976,11.606-2.977l0.5,1.936C1697.535,623.991,1693.664,624.983,1689.799,625.967z M1713.015,619.965
	l-0.508-1.935c3.799-0.998,7.604-2.004,11.414-3.02l0.168-0.045l0.517,1.932l-0.175,0.047
	C1720.624,617.959,1716.817,618.966,1713.015,619.965z M985.962,617.947l-1.929-0.53c1.007-3.664,2.44-7.467,4.259-11.302
	l1.807,0.857C988.33,610.702,986.938,614.395,985.962,617.947z M1736.184,613.789l-0.522-1.931
	c3.855-1.043,7.701-2.092,11.537-3.146l0.529,1.929C1743.89,611.695,1740.042,612.744,1736.184,613.789z M1759.284,607.443
	l-0.537-1.927c3.856-1.075,7.701-2.155,11.536-3.24l0.545,1.925C1766.99,605.287,1763.143,606.367,1759.284,607.443z
	 M1782.36,600.916l-0.552-1.922c3.848-1.105,7.686-2.214,11.512-3.328l0.559,1.92C1790.051,598.7,1786.211,599.81,1782.36,600.916z
	 M995.856,596.65l-1.686-1.076c2.051-3.214,4.396-6.524,6.968-9.837l1.58,1.227C1000.183,590.229,997.874,593.488,995.856,596.65z
	 M1805.386,594.212l-0.566-1.918c3.839-1.135,7.668-2.274,11.485-3.418l0.574,1.916
	C1813.06,591.937,1809.228,593.076,1805.386,594.212z M1828.357,587.327l-0.582-1.913c3.832-1.165,7.652-2.334,11.459-3.508
	l0.59,1.911C1836.014,584.991,1832.191,586.162,1828.357,587.327z M1851.276,580.261l-0.598-1.909
	c3.823-1.196,7.634-2.396,11.43-3.6l0.605,1.906C1858.914,577.863,1855.102,579.064,1851.276,580.261z M1010.356,577.833
	l-1.49-1.334c2.566-2.867,5.353-5.805,8.282-8.733l1.414,1.414C1015.659,572.083,1012.898,574.994,1010.356,577.833z
	 M1874.135,573.01l-0.612-1.904c3.815-1.227,7.615-2.458,11.4-3.693l0.621,1.901C1881.755,570.55,1877.953,571.782,1874.135,573.01z
	 M1896.935,565.57l-0.629-1.899c3.806-1.259,7.595-2.522,11.369-3.789l0.637,1.896
	C1904.535,563.045,1900.742,564.31,1896.935,565.57z M1027.198,560.935l-1.35-1.477c2.862-2.616,5.9-5.289,9.027-7.941l1.294,1.525
	C1033.06,555.679,1030.042,558.335,1027.198,560.935z M1919.67,557.938l-0.645-1.894c3.794-1.292,7.573-2.588,11.336-3.887
	l0.652,1.891C1927.249,555.348,1923.467,556.645,1919.67,557.938z M1942.342,550.108l-0.662-1.888
	c3.783-1.326,7.55-2.655,11.3-3.988l0.67,1.885C1949.897,547.451,1946.127,548.781,1942.342,550.108z M1045.409,545.456
	l-1.245-1.566c3.045-2.423,6.243-4.896,9.504-7.35l1.202,1.598C1051.624,540.581,1048.44,543.044,1045.409,545.456z
	 M1964.938,542.075l-0.678-1.882c3.772-1.36,7.527-2.724,11.263-4.091l0.688,1.878
	C1972.472,539.348,1968.715,540.713,1964.938,542.075z M1987.462,533.833l-0.695-1.875c3.761-1.397,7.501-2.796,11.223-4.199
	l0.705,1.872C1994.971,531.034,1991.227,532.435,1987.462,533.833z M1064.516,531.06l-1.164-1.626
	c3.177-2.275,6.486-4.593,9.838-6.888l1.13,1.65C1070.98,526.484,1067.682,528.794,1064.516,531.06z M2009.906,525.373l-0.715-1.868
	c3.748-1.435,7.476-2.871,11.181-4.311l0.725,1.864C2017.388,522.499,2013.658,523.937,2009.906,525.373z M1084.259,517.526
	l-1.1-1.671c3.273-2.153,6.666-4.344,10.085-6.513l1.071,1.689C1090.906,513.193,1087.522,515.378,1084.259,517.526z
	 M2032.263,516.688l-0.734-1.86c3.735-1.474,7.447-2.95,11.136-4.427l0.744,1.856
	C2039.716,513.736,2036.001,515.213,2032.263,516.688z M2054.528,507.765l-0.754-1.853c3.72-1.514,7.415-3.031,11.086-4.549
	l0.764,1.848C2061.951,504.731,2058.252,506.249,2054.528,507.765z M1104.478,504.699l-1.045-1.705
	c3.352-2.054,6.81-4.14,10.278-6.199l1.021,1.72C1111.272,500.57,1107.822,502.65,1104.478,504.699z M2076.693,498.595l-0.775-1.844
	c3.704-1.558,7.381-3.117,11.031-4.678l0.787,1.839C2084.082,495.475,2080.401,497.036,2076.693,498.595z M1125.07,492.469
	l-0.999-1.732c3.407-1.963,6.917-3.958,10.434-5.929l0.978,1.744C1131.973,488.519,1128.47,490.51,1125.07,492.469z
	 M2098.75,489.163l-0.797-1.834c3.687-1.603,7.343-3.208,10.971-4.814l0.811,1.829
	C2106.102,485.951,2102.44,487.558,2098.75,489.163z M1145.964,480.755l-0.958-1.756c3.473-1.896,6.994-3.794,10.562-5.694
	l0.94,1.766C1152.946,476.967,1149.431,478.862,1145.964,480.755z M2120.687,479.452l-0.822-1.823
	c3.667-1.652,7.303-3.306,10.906-4.96l0.834,1.817C2127.997,476.142,2124.357,477.797,2120.687,479.452z M1167.109,469.494
	l-0.923-1.775c3.515-1.827,7.072-3.656,10.671-5.485l0.906,1.783C1174.169,465.844,1170.618,467.669,1167.109,469.494z
	 M2142.489,469.443l-0.848-1.812c3.646-1.705,7.256-3.412,10.832-5.117l0.861,1.805
	C2149.755,466.027,2146.139,467.735,2142.489,469.443z M2164.142,459.112l-0.875-1.798c3.62-1.763,7.204-3.526,10.749-5.288
	l0.891,1.791C2171.355,455.582,2167.768,457.347,2164.142,459.112z M1188.466,458.637l-0.891-1.791
	c3.55-1.765,7.138-3.531,10.765-5.296l0.875,1.798C1195.595,455.11,1192.011,456.874,1188.466,458.637z M2185.627,448.43
	l-0.906-1.783c3.594-1.826,7.146-3.65,10.655-5.474l0.922,1.774C2192.783,444.774,2189.227,446.602,2185.627,448.43z
	 M1210.007,448.145l-0.861-1.805c3.58-1.708,7.196-3.417,10.846-5.125l0.848,1.812
	C1217.194,444.732,1213.583,446.439,1210.007,448.145z M1231.709,437.987l-0.835-1.817c3.608-1.657,7.247-3.313,10.918-4.967
	l0.822,1.823C1238.947,434.679,1235.312,436.332,1231.709,437.987z M2206.917,437.363l-0.939-1.766
	c3.562-1.896,7.077-3.79,10.544-5.682l0.958,1.756C2214.006,433.566,2210.484,435.463,2206.917,437.363z M1253.554,428.139
	l-0.81-1.829c3.632-1.608,7.293-3.215,10.983-4.82l0.798,1.834C1260.839,424.927,1257.182,426.532,1253.554,428.139z
	 M2227.982,425.866l-0.978-1.745c3.531-1.978,7.035-3.969,10.414-5.915l0.998,1.733
	C2235.031,421.89,2231.521,423.884,2227.982,425.866z M1275.526,418.577l-0.787-1.839c3.654-1.563,7.334-3.124,11.042-4.684
	l0.775,1.844C1282.854,415.456,1279.177,417.016,1275.526,418.577z M2248.779,413.883l-1.021-1.72
	c3.466-2.057,6.916-4.136,10.256-6.182l1.045,1.706C2255.71,409.737,2252.252,411.822,2248.779,413.883z M1297.615,409.284
	l-0.765-1.849c3.673-1.52,7.372-3.038,11.095-4.555l0.754,1.853C1304.98,406.248,1301.286,407.765,1297.615,409.284z
	 M2269.248,401.342l-1.07-1.689c3.404-2.157,6.789-4.34,10.06-6.491l1.1,1.671C2276.056,396.989,2272.662,399.179,2269.248,401.342z
	 M1319.81,400.246l-0.744-1.856c3.692-1.479,7.407-2.957,11.144-4.432l0.734,1.86C1327.21,397.292,1323.499,398.767,1319.81,400.246
	z M1342.101,391.449l-0.725-1.864c3.709-1.441,7.439-2.879,11.189-4.315l0.715,1.868
	C1349.533,388.571,1345.807,390.009,1342.101,391.449z M2289.309,388.145l-1.129-1.65c3.344-2.289,6.643-4.597,9.806-6.86
	l1.164,1.627C2295.975,383.533,2292.664,385.848,2289.309,388.145z M1364.483,382.882l-0.706-1.871
	c3.724-1.404,7.468-2.805,11.231-4.204l0.697,1.875C1371.945,380.08,1368.204,381.48,1364.483,382.882z M1386.948,374.537
	l-0.688-1.878c3.739-1.369,7.496-2.734,11.271-4.096l0.679,1.882C1394.438,371.805,1390.684,373.169,1386.948,374.537z
	 M2308.837,374.16l-1.201-1.599c3.249-2.443,6.434-4.903,9.465-7.312l1.244,1.566C2315.3,369.235,2312.102,371.706,2308.837,374.16z
	 M1409.491,366.404l-0.67-1.885c3.752-1.334,7.521-2.664,11.308-3.992l0.661,1.888
	C1417.007,363.742,1413.24,365.071,1409.491,366.404z M2327.639,359.193l-1.293-1.525c3.113-2.638,6.133-5.291,8.977-7.887
	l1.348,1.477C2333.809,353.871,2330.771,356.54,2327.639,359.193z M1432.109,358.478l-0.653-1.891
	c3.765-1.301,7.546-2.598,11.343-3.891l0.645,1.893C1439.649,355.882,1435.871,357.178,1432.109,358.478z M1454.795,350.75
	l-0.637-1.896c3.777-1.268,7.569-2.532,11.375-3.792l0.629,1.898C1462.358,348.22,1458.569,349.483,1454.795,350.75z
	 M1477.546,343.219l-0.62-1.901c3.788-1.236,7.59-2.469,11.407-3.697l0.612,1.904
	C1485.131,340.752,1481.332,341.983,1477.546,343.219z M2345.377,342.96l-1.412-1.415c2.903-2.898,5.667-5.807,8.215-8.645
	l1.488,1.336C2351.097,337.101,2348.307,340.036,2345.377,342.96z M1500.36,335.877l-0.605-1.906
	c3.799-1.206,7.612-2.407,11.438-3.603l0.597,1.909C1507.967,333.473,1504.157,334.673,1500.36,335.877z M1523.233,328.722
	l-0.589-1.911c3.809-1.175,7.631-2.345,11.465-3.511l0.582,1.913C1530.86,326.379,1527.041,327.548,1523.233,328.722z
	 M2361.409,325.009l-1.578-1.229c2.538-3.257,4.853-6.512,6.881-9.675l1.684,1.079
	C2366.335,318.398,2363.984,321.704,2361.409,325.009z M1546.163,321.75l-0.574-1.916c3.819-1.145,7.65-2.285,11.493-3.42
	l0.566,1.918C1553.808,319.466,1549.98,320.606,1546.163,321.75z M1569.147,314.958l-0.56-1.92c3.829-1.115,7.668-2.226,11.52-3.331
	l0.552,1.922C1576.811,312.734,1572.973,313.844,1569.147,314.958z M1592.182,308.345l-0.544-1.925
	c3.837-1.085,7.685-2.167,11.543-3.243l0.537,1.927C1599.863,306.18,1596.018,307.26,1592.182,308.345z M2374.299,304.659
	l-1.805-0.862c1.78-3.726,3.186-7.415,4.177-10.963l1.926,0.538C2377.575,297.03,2376.129,300.828,2374.299,304.659z
	 M1615.268,301.908l-0.53-1.929c3.838-1.055,7.686-2.104,11.543-3.148l0.522,1.931
	C1622.949,299.805,1619.103,300.854,1615.268,301.908z M1638.374,295.653l-0.517-1.932l0.404-0.107
	c3.732-0.995,7.462-1.982,11.188-2.96l0.508,1.935c-3.723,0.978-7.451,1.964-11.184,2.959L1638.374,295.653z M1661.552,289.566
	l-0.501-1.936c3.877-1.003,7.749-1.996,11.614-2.98l0.493,1.938C1669.296,287.571,1665.427,288.564,1661.552,289.566z
	 M1684.776,283.653l-0.486-1.94c3.886-0.973,7.764-1.937,11.636-2.891l0.479,1.941
	C1692.536,281.717,1688.659,282.68,1684.776,283.653z M2380.509,281.446l-1.998-0.07c0.017-0.49,0.025-0.978,0.025-1.464
	c0-3.461-0.438-6.863-1.304-10.108l-0.121-0.445l1.928-0.535l0.126,0.466c0.909,3.412,1.371,6.986,1.371,10.622
	C2380.536,280.421,2380.527,280.933,2380.509,281.446z M1708.044,277.918l-0.471-1.943c3.893-0.944,7.779-1.878,11.658-2.802
	l0.464,1.945C1715.818,276.043,1711.935,276.976,1708.044,277.918z M1731.357,272.364l-0.456-1.947
	c3.902-0.914,7.795-1.817,11.68-2.71l0.448,1.949C1739.147,270.548,1735.256,271.452,1731.357,272.364z M1754.711,266.994
	l-0.439-1.951c3.909-0.882,7.81-1.755,11.7-2.617l0.434,1.952C1762.517,265.24,1758.618,266.111,1754.711,266.994z M1778.108,261.81
	l-0.426-1.954c3.918-0.852,7.825-1.692,11.723-2.522l0.416,1.956C1785.928,260.119,1782.022,260.959,1778.108,261.81z
	 M2372.349,258.758c-1.991-3.135-4.496-6.17-7.446-9.021l1.391-1.438c3.063,2.96,5.668,6.119,7.743,9.387L2372.349,258.758z
	 M1801.547,256.816l-0.408-1.958c3.925-0.819,7.84-1.627,11.743-2.425l0.4,1.96C1809.381,255.19,1805.47,255.998,1801.547,256.816z
	 M1825.026,252.02l-0.393-1.961c3.934-0.786,7.854-1.561,11.765-2.325l0.383,1.963
	C1832.875,250.46,1828.956,251.234,1825.026,252.02z M1848.545,247.424l-0.375-1.964c3.939-0.753,7.868-1.493,11.783-2.223
	l0.366,1.966C1856.407,245.932,1852.482,246.672,1848.545,247.424z M1872.104,243.035l-0.357-1.968
	c3.948-0.717,7.882-1.422,11.803-2.116l0.348,1.97C1879.979,241.614,1876.048,242.319,1872.104,243.035z M2355.723,242.347
	c-3.08-2.094-6.515-4.117-10.209-6.014l0.914-1.779c3.767,1.934,7.271,3.999,10.42,6.139L2355.723,242.347z M1895.701,238.862
	l-0.34-1.971c3.956-0.68,7.897-1.348,11.823-2.005l0.33,1.973C1903.591,237.514,1899.653,238.182,1895.701,238.862z
	 M1919.335,234.912l-0.32-1.974c3.964-0.643,7.91-1.273,11.842-1.89l0.311,1.976C1927.238,233.64,1923.295,234.27,1919.335,234.912z
	 M2334.695,231.411c-3.514-1.419-7.281-2.786-11.198-4.063l0.619-1.901c3.961,1.291,7.772,2.674,11.328,4.11L2334.695,231.411z
	 M1943.008,231.194l-0.301-1.978c3.972-0.602,7.926-1.192,11.86-1.769l0.291,1.979
	C1950.926,230.003,1946.976,230.592,1943.008,231.194z M1966.718,227.722l-0.279-1.98c3.979-0.561,7.939-1.109,11.88-1.643
	l0.269,1.981C1974.649,226.614,1970.693,227.161,1966.718,227.722z M1990.463,224.506l-0.258-1.983
	c3.986-0.518,7.952-1.02,11.897-1.508l0.246,1.984C1998.407,223.487,1994.445,223.989,1990.463,224.506z M2312.055,223.971
	c-3.699-0.988-7.603-1.935-11.602-2.816l0.43-1.953c4.028,0.887,7.96,1.841,11.688,2.837L2312.055,223.971z M2014.242,221.563
	l-0.234-1.986c3.994-0.47,7.967-0.926,11.915-1.366l0.221,1.988C2022.199,220.638,2018.232,221.092,2014.242,221.563z
	 M2038.055,218.91l-0.209-1.989c4.002-0.42,7.98-0.824,11.932-1.212l0.195,1.99C2046.025,218.086,2042.053,218.49,2038.055,218.91z
	 M2288.738,218.806c-3.795-0.691-7.763-1.349-11.793-1.954l0.297-1.978c4.051,0.608,8.039,1.269,11.855,1.964L2288.738,218.806z
	 M2061.899,216.569l-0.182-1.991c4.011-0.366,7.994-0.715,11.947-1.047l0.168,1.993
	C2069.884,215.855,2065.906,216.204,2061.899,216.569z M2265.095,215.238c-3.854-0.474-7.854-0.917-11.889-1.317l0.197-1.99
	c4.051,0.402,8.066,0.847,11.936,1.322L2265.095,215.238z M2085.775,214.566l-0.152-1.994c4.02-0.307,8.007-0.596,11.963-0.867
	l0.137,1.995C2093.772,213.971,2089.789,214.26,2085.775,214.566z M2109.677,212.931l-0.121-1.996
	c4.028-0.243,8.021-0.465,11.977-0.669l0.103,1.997C2117.685,212.467,2113.698,212.689,2109.677,212.931z M2241.287,212.865
	c-3.879-0.304-7.896-0.581-11.938-0.823l0.119-1.996c4.056,0.242,8.084,0.52,11.976,0.825L2241.287,212.865z M2133.6,211.704
	l-0.084-1.998c4.035-0.17,8.032-0.319,11.987-0.448l0.064,1.999C2141.619,211.385,2137.629,211.534,2133.6,211.704z
	 M2217.396,211.43c-3.899-0.168-7.925-0.31-11.964-0.422l0.055-1.999c4.05,0.112,8.085,0.254,11.995,0.423L2217.396,211.43z
	 M2157.54,210.93l-0.045-2c4.024-0.089,8.06-0.155,11.996-0.198l0.021,2C2165.566,210.775,2161.575,210.841,2157.54,210.93z
	 M2193.461,210.76c-3.921-0.055-7.949-0.084-11.974-0.088l0.002-2c4.033,0.004,8.07,0.033,11.999,0.088L2193.461,210.76z"/>
<path style="fill:#80C0FF;" d="M2154.253,685.051l-0.006-2c4.035-0.011,8.026-0.042,11.976-0.094l0.025,2
	C2162.293,685.008,2158.294,685.04,2154.253,685.051z M2142.258,685.024c-3.96-0.028-7.958-0.075-11.995-0.141l0.033-2
	c4.03,0.066,8.021,0.113,11.976,0.141L2142.258,685.024z M2178.244,684.733l-0.049-1.999c4.007-0.097,8.034-0.218,11.97-0.361
	l0.072,1.999C2186.294,684.514,2182.259,684.636,2178.244,684.733z M2118.27,684.635c-3.962-0.099-7.959-0.216-11.989-0.35
	l0.066-1.999c4.024,0.134,8.016,0.251,11.974,0.35L2118.27,684.635z M2202.225,683.86l-0.098-1.998
	c4.021-0.197,8.044-0.423,11.954-0.67l0.127,1.996C2210.287,683.437,2206.256,683.663,2202.225,683.86z M2094.294,683.838
	c-3.964-0.164-7.957-0.343-11.981-0.54l0.098-1.997c4.019,0.196,8.008,0.375,11.966,0.539L2094.294,683.838z M2070.335,682.67
	c-3.964-0.222-7.954-0.46-11.972-0.713l0.125-1.996c4.014,0.253,8,0.49,11.958,0.712L2070.335,682.67z M2226.18,682.342
	l-0.156-1.994c4.007-0.313,8.02-0.662,11.926-1.035l0.189,1.991C2234.222,681.678,2230.198,682.027,2226.18,682.342z
	 M2046.396,681.163c-3.962-0.276-7.95-0.567-11.961-0.873l0.152-1.994c4.007,0.305,7.989,0.596,11.947,0.872L2046.396,681.163z
	 M2250.078,680.056l-0.227-1.987c4.031-0.461,8.026-0.958,11.874-1.479l0.268,1.982
	C2258.132,679.094,2254.123,679.593,2250.078,680.056z M2022.479,679.342c-3.96-0.326-7.943-0.667-11.948-1.021l0.176-1.992
	c4.001,0.354,7.98,0.694,11.937,1.02L2022.479,679.342z M1998.589,677.229c-3.958-0.373-7.937-0.76-11.937-1.16l0.199-1.99
	c3.996,0.4,7.971,0.787,11.925,1.159L1998.589,677.229z M2273.874,676.823l-0.314-1.975c4.004-0.637,7.969-1.323,11.785-2.037
	l0.367,1.966C2281.879,675.495,2277.896,676.183,2273.874,676.823z M1974.724,674.843c-3.954-0.418-7.929-0.848-11.922-1.292
	l0.221-1.987c3.989,0.443,7.96,0.873,11.911,1.29L1974.724,674.843z M2297.489,672.388l-0.43-1.953
	c3.984-0.875,7.896-1.808,11.623-2.772l0.5,1.937C2305.432,670.57,2301.497,671.508,2297.489,672.388z M1950.887,672.197
	c-3.952-0.459-7.922-0.932-11.908-1.415l0.242-1.985c3.982,0.483,7.948,0.955,11.896,1.414L1950.887,672.197z M1927.079,669.306
	c-3.947-0.5-7.912-1.011-11.893-1.534l0.261-1.983c3.978,0.522,7.938,1.034,11.884,1.533L1927.079,669.306z M2320.76,666.337
	l-0.586-1.912c3.924-1.203,7.729-2.48,11.308-3.796l0.689,1.877C2328.559,663.834,2324.719,665.123,2320.76,666.337z
	 M1903.303,666.18c-3.944-0.538-7.903-1.087-11.878-1.647l0.279-1.981c3.972,0.561,7.928,1.109,11.868,1.647L1903.303,666.18z
	 M1879.556,662.83c-3.939-0.575-7.894-1.16-11.861-1.757l0.297-1.977c3.966,0.596,7.916,1.181,11.854,1.755L1879.556,662.83z
	 M1855.841,659.263c-3.936-0.61-7.885-1.231-11.845-1.862l0.314-1.975c3.958,0.631,7.903,1.252,11.837,1.861L1855.841,659.263z
	 M2343.336,657.973l-0.818-1.824c3.776-1.696,7.35-3.49,10.619-5.334l0.982,1.742
	C2350.796,654.431,2347.168,656.253,2343.336,657.973z M1832.159,655.487c-3.931-0.644-7.873-1.299-11.829-1.964l0.332-1.972
	c3.953,0.665,7.893,1.319,11.821,1.963L1832.159,655.487z M1808.511,651.509c-3.927-0.677-7.863-1.365-11.812-2.063l0.348-1.97
	c3.946,0.698,7.881,1.385,11.804,2.063L1808.511,651.509z M1784.896,647.333c-3.921-0.71-7.852-1.43-11.794-2.16l0.365-1.967
	c3.938,0.73,7.867,1.449,11.785,2.159L1784.896,647.333z M2364.284,646.01l-1.191-1.607c3.335-2.471,6.315-5.083,8.859-7.764
	l1.451,1.377C2370.779,640.781,2367.711,643.47,2364.284,646.01z M1761.316,642.964c-3.916-0.742-7.841-1.494-11.775-2.255
	l0.38-1.964c3.932,0.761,7.854,1.512,11.769,2.254L1761.316,642.964z M1737.775,638.408c-3.911-0.773-7.83-1.556-11.758-2.348
	l0.396-1.961c3.925,0.792,7.842,1.574,11.75,2.347L1737.775,638.408z M1714.268,633.667c-3.905-0.804-7.819-1.617-11.739-2.439
	l0.411-1.957c3.918,0.822,7.829,1.635,11.732,2.438L1714.268,633.667z M1690.799,628.743c-3.9-0.834-7.807-1.677-11.72-2.529
	l0.426-1.954c3.911,0.852,7.815,1.694,11.712,2.527L1690.799,628.743z M2380.723,628.297l-1.736-0.994
	c1.972-3.442,3.404-7.075,4.26-10.797l0.124-0.561l1.956,0.417l-0.13,0.586C2384.296,620.868,2382.791,624.684,2380.723,628.297z
	 M1667.369,623.641c-3.886-0.862-7.778-1.733-11.677-2.613l0.44-1.951c3.896,0.88,7.786,1.75,11.669,2.611L1667.369,623.641z
	 M1644.005,618.366l-0.107-0.024c-3.872-0.889-7.73-1.783-11.578-2.682l0.455-1.947c3.846,0.898,7.701,1.792,11.564,2.679
	l0.108,0.024L1644.005,618.366z M1620.648,612.91c-3.896-0.926-7.784-1.858-11.661-2.794l0.47-1.944
	c3.875,0.937,7.759,1.867,11.654,2.793L1620.648,612.91z M1597.337,607.278c-3.89-0.956-7.77-1.916-11.639-2.883l0.484-1.94
	c3.867,0.966,7.744,1.926,11.632,2.881L1597.337,607.278z M2384.078,604.318c-0.305-3.678-1.104-7.506-2.376-11.378l1.9-0.624
	c1.32,4.02,2.151,8.002,2.469,11.836L2384.078,604.318z M1574.07,601.467c-3.883-0.986-7.756-1.977-11.616-2.973l0.499-1.937
	c3.858,0.995,7.728,1.985,11.609,2.971L1574.07,601.467z M1550.849,595.477c-3.876-1.016-7.741-2.037-11.593-3.064l0.515-1.933
	c3.849,1.025,7.711,2.046,11.585,3.061L1550.849,595.477z M1527.674,589.304c-3.869-1.047-7.725-2.1-11.568-3.156l0.53-1.929
	c3.84,1.056,7.694,2.107,11.561,3.154L1527.674,589.304z M1504.55,582.946c-3.861-1.078-7.708-2.162-11.542-3.25l0.546-1.924
	c3.831,1.087,7.676,2.169,11.535,3.247L1504.55,582.946z M2377.061,582.18c-1.739-3.28-3.823-6.663-6.193-10.056l1.639-1.145
	c2.418,3.459,4.545,6.913,6.322,10.264L2377.061,582.18z M1481.478,576.399c-3.853-1.111-7.692-2.226-11.516-3.345l0.562-1.919
	c3.821,1.119,7.657,2.233,11.507,3.343L1481.478,576.399z M1458.461,569.66c-3.844-1.144-7.673-2.292-11.486-3.443l0.578-1.915
	c3.811,1.151,7.637,2.298,11.479,3.441L1458.461,569.66z M2363.617,562.729c-2.438-2.893-5.126-5.86-7.99-8.82l1.438-1.391
	c2.896,2.992,5.615,5.994,8.082,8.921L2363.617,562.729z M1435.502,562.724c-3.835-1.177-7.654-2.358-11.457-3.544l0.595-1.909
	c3.8,1.185,7.616,2.365,11.448,3.541L1435.502,562.724z M1412.605,555.585c-3.825-1.212-7.633-2.427-11.424-3.647l0.612-1.904
	c3.788,1.219,7.593,2.434,11.416,3.645L1412.605,555.585z M1389.774,548.238c-3.815-1.247-7.612-2.499-11.389-3.754l0.631-1.898
	c3.774,1.254,7.568,2.505,11.38,3.752L1389.774,548.238z M2347.099,545.579c-2.817-2.61-5.824-5.272-8.938-7.913l1.293-1.525
	c3.137,2.66,6.166,5.341,9.005,7.971L2347.099,545.579z M1367.014,540.675c-3.805-1.285-7.589-2.573-11.353-3.865l0.649-1.892
	c3.761,1.292,7.542,2.579,11.343,3.862L1367.014,540.675z M1344.328,532.889c-3.792-1.324-7.564-2.65-11.313-3.98l0.669-1.885
	c3.746,1.329,7.514,2.655,11.303,3.977L1344.328,532.889z M2328.903,530.113c-3.04-2.392-6.241-4.828-9.513-7.241l1.188-1.609
	c3.288,2.425,6.505,4.874,9.562,7.278L2328.903,530.113z M1321.723,524.868c-3.78-1.364-7.537-2.731-11.27-4.102l0.688-1.877
	c3.73,1.369,7.484,2.735,11.26,4.098L1321.723,524.868z M1299.206,516.602c-3.767-1.407-7.508-2.817-11.224-4.229l0.711-1.87
	c3.712,1.411,7.449,2.82,11.212,4.225L1299.206,516.602z M2309.671,515.905c-3.185-2.22-6.515-4.481-9.897-6.724l1.105-1.667
	c3.396,2.25,6.738,4.521,9.936,6.75L2309.671,515.905z M1276.783,508.079c-3.751-1.452-7.476-2.906-11.172-4.364l0.733-1.86
	c3.693,1.456,7.413,2.908,11.161,4.359L1276.783,508.079z M2289.729,502.676c-3.296-2.087-6.719-4.211-10.173-6.309l1.039-1.709
	c3.464,2.105,6.897,4.234,10.204,6.329L2289.729,502.676z M1254.466,499.281c-3.735-1.499-7.44-3.002-11.116-4.507l0.758-1.851
	c3.671,1.503,7.373,3.003,11.103,4.502L1254.466,499.281z M2269.274,490.237c-3.379-1.976-6.872-3.984-10.382-5.966l0.984-1.741
	c3.518,1.987,7.02,4,10.407,5.981L2269.274,490.237z M1232.266,490.192c-3.717-1.552-7.401-3.105-11.053-4.661l0.784-1.84
	c3.647,1.554,7.327,3.105,11.04,4.655L1232.266,490.192z M1210.194,480.788c-3.697-1.608-7.357-3.217-10.982-4.827l0.812-1.828
	c3.62,1.608,7.276,3.215,10.968,4.821L1210.194,480.788z M2248.426,478.457c-3.422-1.871-6.971-3.78-10.546-5.675l0.936-1.767
	c3.584,1.899,7.14,3.813,10.569,5.688L2248.426,478.457z M1188.271,471.044c-3.673-1.669-7.308-3.339-10.901-5.01l0.843-1.814
	c3.588,1.668,7.217,3.335,10.885,5.002L1188.271,471.044z M2227.263,467.238c-3.509-1.807-7.069-3.614-10.679-5.422l0.895-1.788
	c3.617,1.811,7.184,3.622,10.7,5.432L2227.263,467.238z M1166.512,460.927c-3.646-1.737-7.25-3.474-10.808-5.21l0.877-1.797
	c3.552,1.734,7.149,3.468,10.791,5.202L1166.512,460.927z M2205.846,456.508c-3.552-1.733-7.149-3.466-10.791-5.199l0.859-1.806
	c3.647,1.736,7.251,3.472,10.809,5.207L2205.846,456.508z M1144.95,450.397c-3.616-1.812-7.182-3.624-10.698-5.435l0.916-1.778
	c3.509,1.808,7.068,3.616,10.678,5.425L1144.95,450.397z M2184.213,446.211c-3.589-1.667-7.218-3.334-10.886-4.999l0.826-1.821
	c3.674,1.669,7.309,3.337,10.901,5.007L2184.213,446.211z M1123.616,439.404c-3.539-1.876-7.094-3.79-10.566-5.689l0.959-1.755
	c3.465,1.895,7.013,3.805,10.544,5.678L1123.616,439.404z M2162.397,436.304c-3.619-1.607-7.276-3.214-10.968-4.819l0.797-1.834
	c3.697,1.607,7.358,3.215,10.983,4.825L2162.397,436.304z M1102.56,427.882c-3.519-1.989-7.02-4.003-10.405-5.985l1.011-1.726
	c3.376,1.977,6.869,3.986,10.379,5.97L1102.56,427.882z M2140.425,426.75c-3.647-1.552-7.328-3.103-11.04-4.653l0.77-1.846
	c3.718,1.551,7.402,3.104,11.054,4.659L2140.425,426.75z M2118.311,417.522c-3.672-1.503-7.373-3.003-11.104-4.5l0.745-1.857
	c3.735,1.5,7.44,3.001,11.116,4.505L2118.311,417.522z M1081.845,415.746c-3.478-2.115-6.91-4.247-10.201-6.333l1.071-1.689
	c3.281,2.081,6.702,4.205,10.168,6.314L1081.845,415.746z M2096.075,408.595c-3.693-1.455-7.414-2.907-11.163-4.357l0.722-1.865
	c3.753,1.452,7.477,2.905,11.174,4.362L2096.075,408.595z M1061.568,402.88c-3.39-2.25-6.731-4.523-9.931-6.756l1.145-1.64
	c3.187,2.224,6.515,4.488,9.892,6.728L1061.568,402.88z M2073.726,399.948c-3.714-1.411-7.451-2.819-11.214-4.223l0.699-1.874
	c3.767,1.406,7.508,2.815,11.226,4.228L2073.726,399.948z M2051.275,391.567c-3.73-1.369-7.483-2.734-11.26-4.097l0.679-1.881
	c3.779,1.363,7.536,2.73,11.271,4.1L2051.275,391.567z M1041.877,389.119c-3.286-2.428-6.501-4.879-9.556-7.286l1.238-1.571
	c3.039,2.394,6.237,4.833,9.507,7.249L1041.877,389.119z M2028.732,383.435c-3.748-1.329-7.516-2.654-11.305-3.975l0.658-1.889
	c3.793,1.323,7.564,2.649,11.314,3.98L2028.732,383.435z M2006.104,375.543c-3.762-1.291-7.543-2.578-11.345-3.861l0.64-1.895
	c3.805,1.284,7.59,2.572,11.354,3.864L2006.104,375.543z M1023.014,374.225c-3.148-2.674-6.174-5.359-8.995-7.981l1.361-1.465
	c2.799,2.602,5.804,5.267,8.929,7.922L1023.014,374.225z M1983.396,367.879c-3.774-1.254-7.568-2.504-11.381-3.75l0.621-1.901
	c3.816,1.247,7.612,2.499,11.391,3.753L1983.396,367.879z M1960.616,360.433c-3.787-1.218-7.593-2.433-11.415-3.643l0.604-1.906
	c3.826,1.211,7.634,2.426,11.424,3.646L1960.616,360.433z M1005.422,357.827c-2.893-2.998-5.607-6.005-8.067-8.936l1.532-1.286
	c2.43,2.896,5.113,5.868,7.974,8.833L1005.422,357.827z M1937.771,353.198c-3.8-1.184-7.616-2.364-11.448-3.54l0.586-1.912
	c3.836,1.177,7.654,2.357,11.458,3.542L1937.771,353.198z M1914.858,346.169c-3.812-1.151-7.638-2.298-11.479-3.44l0.57-1.917
	c3.844,1.143,7.674,2.29,11.487,3.442L1914.858,346.169z M1891.885,339.34c-3.821-1.119-7.657-2.232-11.508-3.342l0.554-1.922
	c3.854,1.11,7.691,2.225,11.517,3.344L1891.885,339.34z M990.018,339.336c-2.409-3.467-4.525-6.927-6.29-10.284l1.77-0.931
	c1.726,3.284,3.799,6.673,6.162,10.073L990.018,339.336z M1868.857,332.704c-3.832-1.086-7.678-2.168-11.536-3.246l0.537-1.926
	c3.862,1.078,7.71,2.161,11.544,3.248L1868.857,332.704z M1845.773,326.259c-3.841-1.056-7.695-2.107-11.561-3.152l0.521-1.931
	c3.869,1.047,7.726,2.098,11.568,3.154L1845.773,326.259z M1822.639,320c-3.851-1.025-7.713-2.045-11.587-3.061l0.508-1.935
	c3.876,1.016,7.74,2.037,11.593,3.063L1822.639,320z M978.998,317.957c-1.3-4.027-2.108-8.016-2.401-11.854l1.994-0.152
	c0.281,3.682,1.058,7.515,2.31,11.393L978.998,317.957z M1799.454,313.925c-3.858-0.995-7.729-1.985-11.609-2.97l0.492-1.939
	c3.883,0.985,7.755,1.976,11.617,2.972L1799.454,313.925z M1776.225,308.031c-3.867-0.965-7.744-1.925-11.632-2.88l0.477-1.942
	c3.891,0.956,7.771,1.916,11.64,2.882L1776.225,308.031z M1752.949,302.316c-3.875-0.936-7.759-1.867-11.653-2.792l0.462-1.946
	c3.897,0.926,7.784,1.856,11.661,2.793L1752.949,302.316z M1729.632,296.778c-3.75-0.875-7.51-1.746-11.277-2.612l-0.323-0.074
	l0.149-0.992l0.223-0.975l-0.223,0.975l0.297-0.958l0.327,0.075c3.768,0.865,7.529,1.737,11.282,2.613L1729.632,296.778z
	 M979.386,294.329l-1.954-0.429l0.069-0.302c0.876-3.814,2.331-7.543,4.323-11.078l1.742,0.982
	c-1.898,3.367-3.283,6.916-4.118,10.549L979.386,294.329z M1706.275,291.417c-3.896-0.879-7.786-1.749-11.669-2.61l0.433-1.952
	c3.886,0.861,7.778,1.732,11.677,2.611L1706.275,291.417z M1682.903,286.236c-3.911-0.852-7.815-1.694-11.712-2.526l0.418-1.956
	c3.899,0.834,7.807,1.676,11.72,2.528L1682.903,286.236z M1659.467,281.228c-3.918-0.821-7.829-1.633-11.732-2.437l0.403-1.959
	c3.905,0.803,7.819,1.616,11.739,2.439L1659.467,281.228z M1635.995,276.4c-3.925-0.792-7.841-1.573-11.75-2.346l0.388-1.962
	c3.911,0.773,7.83,1.555,11.758,2.347L1635.995,276.4z M990.543,274.127l-1.458-1.37c2.612-2.779,5.669-5.482,9.086-8.033
	l1.196,1.603C996.044,268.809,993.075,271.433,990.543,274.127z M1612.484,271.756c-3.932-0.761-7.855-1.511-11.769-2.253
	l0.372-1.965c3.917,0.741,7.842,1.493,11.776,2.253L1612.484,271.756z M1588.938,267.298c-3.938-0.73-7.867-1.449-11.786-2.158
	l0.356-1.968c3.921,0.709,7.853,1.429,11.794,2.159L1588.938,267.298z M1565.356,263.031c-3.944-0.698-7.879-1.384-11.803-2.061
	l0.34-1.971c3.927,0.677,7.864,1.364,11.812,2.062L1565.356,263.031z M1009.305,259.886l-0.987-1.74
	c3.32-1.883,6.944-3.713,10.771-5.44l0.822,1.823C1016.141,256.23,1012.572,258.033,1009.305,259.886z M1541.742,258.958
	c-3.952-0.665-7.892-1.318-11.82-1.962l0.323-1.974c3.931,0.643,7.874,1.298,11.829,1.963L1541.742,258.958z M1518.093,255.085
	c-3.958-0.63-7.903-1.25-11.836-1.859l0.306-1.977c3.936,0.609,7.884,1.23,11.845,1.86L1518.093,255.085z M1494.412,251.418
	c-3.964-0.595-7.916-1.18-11.853-1.753l0.288-1.979c3.94,0.574,7.894,1.159,11.861,1.755L1494.412,251.418z M1030.939,250.03
	l-0.693-1.876c3.607-1.332,7.445-2.627,11.406-3.847l0.589,1.911C1038.314,247.428,1034.512,248.71,1030.939,250.03z
	 M1470.699,247.965c-3.971-0.561-7.927-1.108-11.868-1.645l0.27-1.981c3.944,0.537,7.903,1.086,11.877,1.646L1470.699,247.965z
	 M1446.956,244.731c-3.977-0.522-7.938-1.033-11.884-1.532l0.251-1.984c3.948,0.499,7.913,1.01,11.893,1.533L1446.956,244.731z
	 M1053.729,242.968l-0.503-1.936c3.744-0.972,7.677-1.914,11.691-2.8l0.431,1.953
	C1061.358,241.065,1057.449,242.001,1053.729,242.968z M1423.182,241.726c-3.982-0.483-7.949-0.954-11.897-1.413l0.231-1.986
	c3.952,0.459,7.921,0.931,11.907,1.414L1423.182,241.726z M1399.38,238.962c-3.989-0.443-7.959-0.873-11.911-1.289l0.21-1.989
	c3.955,0.417,7.929,0.847,11.922,1.29L1399.38,238.962z M1077.062,237.8l-0.369-1.966c3.82-0.718,7.802-1.409,11.835-2.054
	l0.316,1.975C1084.829,236.398,1080.864,237.085,1077.062,237.8z M1375.551,236.449c-3.996-0.399-7.971-0.785-11.925-1.157
	l0.188-1.991c3.958,0.372,7.937,0.759,11.936,1.158L1375.551,236.449z M1351.695,234.203c-4.002-0.354-7.981-0.693-11.937-1.018
	l0.164-1.993c3.96,0.326,7.943,0.666,11.949,1.02L1351.695,234.203z M1100.679,234.007l-0.27-1.981
	c3.853-0.524,7.861-1.025,11.914-1.49l0.229,1.987C1108.512,232.986,1104.518,233.485,1100.679,234.007z M1327.815,232.239
	c-4.008-0.305-7.991-0.594-11.949-0.87l0.139-1.995c3.962,0.275,7.95,0.566,11.961,0.871L1327.815,232.239z M1124.454,231.272
	l-0.19-1.991c3.909-0.375,7.932-0.725,11.958-1.043l0.157,1.994C1132.363,230.548,1128.352,230.898,1124.454,231.272z
	 M1303.913,230.578c-4.013-0.252-8-0.489-11.958-0.71l0.111-1.997c3.963,0.221,7.955,0.458,11.973,0.711L1303.913,230.578z
	 M1148.319,229.383l-0.127-1.996c3.94-0.25,7.972-0.477,11.982-0.675l0.099,1.997
	C1156.272,228.907,1152.25,229.134,1148.319,229.383z M1279.991,229.242c-4.019-0.195-8.008-0.374-11.966-0.537l0.082-1.998
	c3.963,0.163,7.958,0.342,11.981,0.537L1279.991,229.242z M1256.055,228.262c-4.025-0.134-8.017-0.249-11.974-0.348l0.05-1.999
	c3.963,0.098,7.96,0.214,11.99,0.348L1256.055,228.262z M1172.236,228.196l-0.073-1.999c3.93-0.143,7.964-0.266,11.993-0.365
	l0.049,1.999C1180.184,227.93,1176.157,228.053,1172.236,228.196z M1232.105,227.669c-4.03-0.065-8.022-0.111-11.976-0.138l0.014-2
	c3.96,0.027,7.959,0.073,11.995,0.138L1232.105,227.669z M1196.178,227.605l-0.026-2c3.956-0.053,7.955-0.085,11.996-0.097l0.006,2
	C1204.119,227.52,1200.126,227.552,1196.178,227.605z"/>
<g>
	
		<ellipse transform="matrix(0.7071 -0.7071 0.7071 0.7071 -157.467 881.5327)" style="fill:#80C0FF;" cx="985.371" cy="630.846" rx="19.12" ry="19.12"/>
	
		<ellipse transform="matrix(0.2298 -0.9732 0.9732 0.2298 1252.095 2475.1865)" style="fill:#80C0FF;" cx="2189.815" cy="446.548" rx="19.12" ry="19.12"/>
	
		<ellipse transform="matrix(0.2298 -0.9732 0.9732 0.2298 854.5046 2431.2935)" style="fill:#80C0FF;" cx="1963.287" cy="675.791" rx="19.12" ry="19.12"/>
	
		<ellipse transform="matrix(0.7071 -0.7071 0.7071 0.7071 17.3599 1149.0538)" style="fill:#80C0FF;" cx="1395.711" cy="553.572" rx="19.12" ry="19.12"/>
</g>
<path style="fill:#102A54;" d="M3298.215,1853.077H225.14c-2.958,0-5.355-2.397-5.355-5.354s2.397-5.354,5.355-5.354h3073.075
	c2.957,0,5.354,2.397,5.354,5.354S3301.172,1853.077,3298.215,1853.077z"/>
<g>
	<g>
		<path style="fill:#102A54;" d="M2172.051,317.074c-0.529,0-1.058-0.202-1.462-0.605l-20.911-20.911
			c-0.807-0.807-0.807-2.116,0-2.923c0.809-0.808,2.115-0.808,2.924,0l20.911,20.911c0.807,0.807,0.807,2.116,0,2.923
			C2173.108,316.873,2172.58,317.074,2172.051,317.074z"/>
		<path style="fill:#102A54;" d="M2151.14,317.074c-0.529,0-1.058-0.202-1.462-0.605c-0.807-0.807-0.807-2.116,0-2.923
			l20.911-20.911c0.809-0.808,2.115-0.808,2.924,0c0.807,0.807,0.807,2.116,0,2.923l-20.911,20.911
			C2152.197,316.873,2151.669,317.074,2151.14,317.074z"/>
	</g>
	<g>
		<path style="fill:#102A54;" d="M1318.727,632.109c-0.529,0-1.058-0.202-1.461-0.605l-20.912-20.911
			c-0.807-0.807-0.807-2.116,0-2.923c0.807-0.808,2.116-0.808,2.923,0l20.912,20.911c0.807,0.807,0.807,2.116,0,2.923
			C1319.785,631.908,1319.256,632.109,1318.727,632.109z"/>
		<path style="fill:#102A54;" d="M1297.815,632.109c-0.529,0-1.058-0.202-1.461-0.605c-0.807-0.807-0.807-2.116,0-2.923
			l20.912-20.911c0.807-0.808,2.116-0.808,2.923,0c0.807,0.807,0.807,2.116,0,2.923l-20.912,20.911
			C1298.874,631.908,1298.344,632.109,1297.815,632.109z"/>
	</g>
	<g>
		<path style="fill:#102A54;" d="M1599.539,190.12c-0.529,0-1.058-0.202-1.461-0.605l-20.911-20.911
			c-0.807-0.807-0.807-2.116,0-2.923c0.807-0.808,2.116-0.808,2.923,0L1601,186.592c0.807,0.807,0.807,2.116,0,2.923
			C1600.597,189.919,1600.067,190.12,1599.539,190.12z"/>
		<path style="fill:#102A54;" d="M1578.627,190.12c-0.529,0-1.058-0.202-1.461-0.605c-0.807-0.807-0.807-2.116,0-2.923
			l20.911-20.911c0.807-0.808,2.116-0.808,2.923,0c0.807,0.807,0.807,2.116,0,2.923l-20.911,20.911
			C1579.686,189.919,1579.156,190.12,1578.627,190.12z"/>
	</g>
	<g>
		<path style="fill:#102A54;" d="M932.082,396.981c-0.333,0-0.667-0.127-0.921-0.382c-0.509-0.509-0.509-1.334,0-1.843
			l13.186-13.186c0.509-0.51,1.334-0.51,1.843,0c0.509,0.509,0.509,1.334,0,1.843L933.003,396.6
			C932.749,396.854,932.415,396.981,932.082,396.981z"/>
		<path style="fill:#102A54;" d="M945.268,396.981c-0.333,0-0.667-0.127-0.921-0.382l-13.186-13.186
			c-0.509-0.509-0.509-1.334,0-1.843c0.509-0.51,1.334-0.51,1.843,0l13.186,13.186c0.509,0.509,0.509,1.334,0,1.843
			C945.935,396.854,945.602,396.981,945.268,396.981z"/>
	</g>
	<g>
		<path style="fill:#102A54;" d="M2441.879,459.573c-0.225,0-0.452-0.073-0.642-0.225l-11.579-9.197
			c-0.447-0.355-0.521-1.005-0.167-1.452c0.354-0.446,1.005-0.523,1.452-0.167l11.579,9.197c0.447,0.355,0.521,1.005,0.167,1.452
			C2442.485,459.439,2442.184,459.573,2441.879,459.573z"/>
		<path style="fill:#102A54;" d="M2431.491,460.764c-0.225,0-0.452-0.073-0.642-0.225c-0.447-0.355-0.521-1.005-0.167-1.452
			l9.196-11.579c0.354-0.446,1.006-0.523,1.452-0.167c0.447,0.355,0.521,1.005,0.167,1.452l-9.196,11.579
			C2432.098,460.63,2431.796,460.764,2431.491,460.764z"/>
	</g>
</g>
<g>
	<g>
		<g>
			<polygon style="fill:#102A54;" points="2293.84,604.19 2281.561,701.899 2517.62,516.363 			"/>
			<polygon style="fill:#80C0FF;" points="2293.84,604.19 2517.62,516.363 2220.397,552.5 			"/>
			<polygon style="fill:#80C0FF;" points="2517.62,516.363 2330.531,631.878 2380.932,745.329 			"/>
		</g>
		<path style="fill:#102A54;" d="M2370.152,748.134l-40.355-90.841l-60.521,47.568l12.574-100.061l-75.559-53.179l303.182-36.861
			L2370.152,748.134z M2330.811,653.206l39.68,89.317l134.057-224.557l-291.266,35.412l71.328,50.203l-11.982,95.357
			L2330.811,653.206z"/>
	</g>
	<g>
		<g>
			<g>
				<path style="fill:#80C0FF;" d="M1675.012,461.175v-45.799h-18.62c-1.618-5.449-3.813-10.737-6.535-15.738l13.178-13.177
					l-32.385-32.385l-13.177,13.177c-4.999-2.719-10.288-4.915-15.738-6.531v-18.623h-45.799v18.623
					c-5.451,1.617-10.739,3.812-15.738,6.532l-13.179-13.178l-32.383,32.385l13.177,13.177c-2.721,4.999-4.917,10.289-6.534,15.738
					h-18.62v45.799h18.62c1.617,5.45,3.813,10.739,6.534,15.739l-13.177,13.177l32.384,32.384l13.178-13.178
					c4.999,2.72,10.287,4.916,15.738,6.532v18.623h45.799v-18.623c5.45-1.617,10.739-3.812,15.738-6.531l13.177,13.177
					l32.385-32.383l-13.177-13.179c2.721-4.999,4.917-10.289,6.534-15.738H1675.012z M1540.436,438.275
					c0-21.173,17.226-38.399,38.399-38.399s38.399,17.226,38.399,38.399c0,21.173-17.226,38.398-38.399,38.398
					S1540.436,459.448,1540.436,438.275z"/>
				<path style="fill:#102A54;" d="M1578.835,494.883c-31.214,0-56.608-25.395-56.608-56.608s25.395-56.608,56.608-56.608
					s56.608,25.395,56.608,56.608S1610.049,494.883,1578.835,494.883z M1578.835,384.253c-29.788,0-54.021,24.234-54.021,54.022
					s24.234,54.021,54.021,54.021c29.787,0,54.021-24.234,54.021-54.021S1608.623,384.253,1578.835,384.253z"/>
			</g>
			<path style="fill:#102A54;" d="M1598.49,535.746h-48.387v-18.957c-4.899-1.516-9.67-3.497-14.208-5.898l-13.414,13.413
				l-34.213-34.213l13.412-13.412c-2.402-4.539-4.382-9.31-5.899-14.21h-18.955v-48.387h18.955c1.517-4.899,3.498-9.67,5.899-14.209
				l-13.412-13.412l34.212-34.214l13.414,13.413c4.539-2.401,9.31-4.382,14.209-5.898v-18.957h48.387v18.957
				c4.899,1.517,9.67,3.497,14.208,5.897l13.413-13.413l34.214,34.214l-13.413,13.412c2.4,4.537,4.382,9.308,5.9,14.209h18.955
				v48.387h-18.955c-1.519,4.901-3.5,9.672-5.9,14.209l13.413,13.414l-34.214,34.212l-13.413-13.413
				c-4.538,2.401-9.309,4.381-14.208,5.897V535.746z M1552.69,533.159h43.213v-18.295l0.926-0.274
				c5.359-1.59,10.57-3.753,15.487-6.428l0.849-0.462l12.946,12.946l30.556-30.554l-12.946-12.948l0.462-0.849
				c2.675-4.915,4.838-10.125,6.431-15.487l0.274-0.925h18.292v-43.213h-18.292l-0.274-0.925
				c-1.592-5.362-3.755-10.572-6.431-15.487l-0.462-0.849l12.947-12.946l-30.556-30.556l-12.946,12.946l-0.849-0.462
				c-4.917-2.675-10.127-4.838-15.487-6.428l-0.926-0.274v-18.295h-43.213v18.295l-0.926,0.274
				c-5.359,1.59-10.569,3.753-15.487,6.429l-0.849,0.462l-12.948-12.947l-30.554,30.556l12.946,12.946l-0.462,0.849
				c-2.676,4.917-4.84,10.127-6.43,15.487l-0.274,0.926h-18.292v43.213h18.292l0.274,0.926c1.59,5.36,3.754,10.571,6.43,15.488
				l0.462,0.849l-12.946,12.946l30.555,30.555l12.947-12.947l0.849,0.462c4.917,2.676,10.128,4.839,15.487,6.429l0.926,0.274
				V533.159z"/>
		</g>
		<g>
			<g>
				<path style="fill:#80C0FF;" d="M1982.407,341.147v-73.19h-29.757c-2.585-8.708-6.093-17.159-10.443-25.15l21.059-21.058
					l-51.754-51.754l-21.058,21.058c-7.988-4.346-16.441-7.854-25.15-10.437v-29.761h-73.19v29.761
					c-8.711,2.584-17.162,6.092-25.15,10.439l-21.061-21.059l-51.751,51.754l21.058,21.058c-4.349,7.99-7.858,16.442-10.442,25.15
					h-29.757v73.19h29.757c2.583,8.709,6.093,17.162,10.442,25.151l-21.058,21.058l51.752,51.752l21.059-21.059
					c7.988,4.347,16.439,7.855,25.15,10.439v29.761h73.19v-29.761c8.709-2.584,17.162-6.092,25.15-10.438l21.058,21.058
					l51.754-51.751l-21.058-21.061c4.349-7.99,7.857-16.442,10.442-25.15H1982.407z M1767.345,304.552
					c0-33.836,27.528-61.364,61.364-61.364c33.835,0,61.364,27.528,61.364,61.364c0,33.835-27.528,61.362-61.364,61.362
					C1794.873,365.915,1767.345,338.388,1767.345,304.552z"/>
				<path style="fill:#102A54;" d="M1828.71,395.015c-49.882,0-90.464-40.582-90.464-90.463c0-49.882,40.582-90.463,90.464-90.463
					s90.463,40.582,90.463,90.463C1919.173,354.434,1878.592,395.015,1828.71,395.015z M1828.71,218.222
					c-47.603,0-86.33,38.728-86.33,86.33c0,47.602,38.728,86.329,86.33,86.329s86.329-38.727,86.329-86.329
					C1915.039,256.95,1876.313,218.222,1828.71,218.222z"/>
			</g>
			<path style="fill:#80C0FF;" d="M1982.407,341.147v-73.19h-29.757c-2.585-8.708-6.093-17.159-10.443-25.15l21.059-21.058
				l-51.754-51.754l-21.058,21.058c-7.988-4.346-16.441-7.854-25.15-10.437v-29.761h-73.19v29.761
				c-8.711,2.584-17.162,6.092-25.15,10.439l-21.061-21.059l-51.751,51.754l21.058,21.058c-4.349,7.99-7.858,16.442-10.442,25.15
				h-29.757v73.19h29.757c2.583,8.709,6.093,17.162,10.442,25.151l-21.058,21.058l51.752,51.752l21.059-21.059
				c7.988,4.347,16.439,7.855,25.15,10.439v29.761h73.19v-29.761c8.709-2.584,17.162-6.092,25.15-10.438l21.058,21.058
				l51.754-51.751l-21.058-21.061c4.349-7.99,7.857-16.442,10.442-25.15H1982.407z M1767.345,304.552
				c0-33.836,27.528-61.364,61.364-61.364c33.835,0,61.364,27.528,61.364,61.364c0,33.835-27.528,61.362-61.364,61.362
				C1794.873,365.915,1767.345,338.388,1767.345,304.552z"/>
			<path style="fill:#102A54;" d="M1828.71,395.015c-49.882,0-90.464-40.582-90.464-90.463c0-49.882,40.582-90.463,90.464-90.463
				s90.463,40.582,90.463,90.463C1919.173,354.434,1878.592,395.015,1828.71,395.015z M1828.71,218.222
				c-47.603,0-86.33,38.728-86.33,86.33c0,47.602,38.728,86.329,86.33,86.329s86.329-38.727,86.329-86.329
				C1915.039,256.95,1876.313,218.222,1828.71,218.222z"/>
			<path style="fill:#102A54;" d="M1872.933,459.543h-75.776V429.45c-8.156-2.485-16.095-5.78-23.623-9.805l-21.293,21.293
				l-53.582-53.581l21.292-21.291c-4.026-7.531-7.323-15.47-9.808-23.625h-30.089v-75.777h30.089
				c2.485-8.153,5.781-16.092,9.808-23.623l-21.292-21.291l53.58-53.583l21.295,21.292c7.526-4.024,15.464-7.319,23.623-9.805
				v-30.092h75.776v30.093c8.159,2.486,16.097,5.781,23.623,9.804l21.292-21.292l53.582,53.583l-21.292,21.291
				c4.025,7.529,7.322,15.467,9.81,23.623h30.087v75.777h-30.087c-2.488,8.159-5.784,16.096-9.809,23.623l21.291,21.294
				l-53.582,53.58l-21.292-21.292c-7.527,4.024-15.466,7.318-23.623,9.804V459.543z M1799.742,456.956h70.604v-29.433l0.925-0.275
				c8.618-2.557,16.995-6.033,24.899-10.334l0.85-0.462l20.827,20.827l49.924-49.921l-20.827-20.83l0.463-0.849
				c4.301-7.903,7.779-16.28,10.338-24.9l0.275-0.925h29.428V269.25h-29.428l-0.275-0.925c-2.558-8.617-6.036-16.995-10.339-24.9
				l-0.463-0.849l20.828-20.827l-49.924-49.925l-20.827,20.827l-0.85-0.462c-7.902-4.3-16.279-7.776-24.899-10.334l-0.925-0.274
				v-29.433h-70.604v29.433l-0.925,0.274c-8.619,2.557-16.997,6.034-24.899,10.335l-0.849,0.462l-20.831-20.828l-49.921,49.925
				l20.827,20.827l-0.462,0.849c-4.304,7.908-7.783,16.286-10.338,24.899l-0.274,0.926h-29.429v70.603h29.429l0.274,0.926
				c2.556,8.615,6.034,16.993,10.338,24.901l0.462,0.849l-20.827,20.827l49.923,49.923l20.829-20.828l0.849,0.462
				c7.904,4.302,16.282,7.779,24.899,10.335l0.925,0.275V456.956z"/>
		</g>
		<g>
			<g>
				<path style="fill:#CCE6FF;" d="M1833.688,627.606c0-31.443-25.49-56.932-56.932-56.932c-31.443,0-56.932,25.49-56.932,56.932
					c0,17.071,7.515,32.385,19.416,42.82c1.039-16.395,12.578-29.937,27.973-33.964c-7.092-3.517-11.97-10.828-11.97-19.281
					c0-11.881,9.631-21.513,21.513-21.513c11.881,0,21.513,9.632,21.513,21.513c0,8.453-4.878,15.764-11.97,19.281
					c15.395,4.028,26.934,17.569,27.974,33.964C1826.172,659.991,1833.688,644.677,1833.688,627.606z"/>
				<path style="fill:#80C0FF;" d="M1786.298,636.462c7.092-3.517,11.97-10.828,11.97-19.281c0-11.881-9.632-21.513-21.513-21.513
					c-11.881,0-21.513,9.632-21.513,21.513c0,8.453,4.878,15.764,11.97,19.281c-15.395,4.028-26.934,17.569-27.973,33.964
					c10.019,8.785,23.145,14.112,37.516,14.112c14.372,0,27.498-5.328,37.517-14.113
					C1813.233,654.03,1801.693,640.49,1786.298,636.462z"/>
			</g>
			<path style="fill:#102A54;" d="M1779.191,690.433c-33.299,0-60.39-27.091-60.39-60.39c0-33.299,27.091-60.39,60.39-60.39
				c33.3,0,60.392,27.091,60.392,60.39C1839.583,663.342,1812.491,690.433,1779.191,690.433z M1779.191,571.696
				c-32.172,0-58.346,26.174-58.346,58.346c0,32.172,26.174,58.346,58.346,58.346c32.173,0,58.347-26.174,58.347-58.346
				C1837.538,597.87,1811.364,571.696,1779.191,571.696z"/>
		</g>
		<g>
			<path style="fill:#CCE6FF;" d="M1158.951,340.647c65.42,15.027,109.593,65.787,98.662,113.374
				c-6.827,29.723-33.538,51.178-68.571,59.437l15.305,35.566c1.429,3.32-2.089,6.604-5.303,4.95l-82.439-35.582
				c-64.432-28.328-106.832-71.201-95.901-118.789C1031.636,352.015,1093.531,325.619,1158.951,340.647z"/>
			<path style="fill:#102A54;" d="M1206.24,556.755c-0.772,0.001-1.552-0.184-2.282-0.559l-82.372-35.551
				c-33.271-14.627-59.76-32.769-76.611-52.466c-18.543-21.675-25.247-44.412-19.925-67.578
				c5.367-23.368,22.886-42.447,49.33-53.725c26.323-11.225,58.37-13.378,90.234-6.058l0,0
				c65.907,15.139,110.538,66.59,99.488,114.692c-6.599,28.728-32.019,51.07-68.117,59.955l14.79,34.368
				c0.836,1.945,0.377,4.135-1.171,5.58C1208.656,556.297,1207.458,556.755,1206.24,556.755z M1127.633,338.751
				c-18.692,0-36.594,3.412-52.391,10.148c-25.779,10.994-42.843,29.53-48.049,52.193c-5.157,22.45,1.388,44.54,19.453,65.656
				c16.637,19.448,42.855,37.387,75.819,51.88l82.432,35.58c1.336,0.685,2.521,0.234,3.206-0.403
				c0.685-0.639,1.216-1.79,0.651-3.102l-15.824-36.771l1.276-0.301c35.939-8.472,61.268-30.383,67.752-58.613
				c10.777-46.92-33.112-97.189-97.837-112.057C1151.868,340.148,1139.588,338.751,1127.633,338.751z"/>
			<g>
				<path style="fill:#80C0FF;" d="M1221.41,430.751l-148.416-34.091c-0.548-0.126-0.891-0.672-0.765-1.221l1.767-7.692
					c0.126-0.548,0.672-0.891,1.22-0.765l148.416,34.091c0.548,0.126,0.891,0.672,0.765,1.221l-1.767,7.692
					C1222.504,430.534,1221.958,430.877,1221.41,430.751z"/>
				<path style="fill:#80C0FF;" d="M1216.496,452.144l-148.416-34.091c-0.548-0.126-0.891-0.672-0.765-1.221l1.767-7.692
					c0.126-0.548,0.672-0.891,1.221-0.765l148.416,34.091c0.548,0.126,0.891,0.672,0.765,1.221l-1.767,7.692
					C1217.59,451.927,1217.044,452.27,1216.496,452.144z"/>
				<path style="fill:#80C0FF;" d="M1141.43,457.423l-78.533-18.039c-0.4-0.092-0.649-0.49-0.557-0.89l1.89-8.23
					c0.092-0.4,0.49-0.649,0.89-0.558l78.533,18.039c0.4,0.092,0.649,0.49,0.557,0.89l-1.89,8.23
					C1142.228,457.265,1141.829,457.515,1141.43,457.423z"/>
			</g>
		</g>
		<g>
			<path style="fill:#80C0FF;" d="M1459.365,232.781c0-12.673-10.273-22.947-22.946-22.947c-2.782,0-5.447,0.495-7.914,1.402
				c-0.973-18.741-16.476-33.638-35.458-33.638c-15.119,0-28.023,9.454-33.145,22.769c-4.434-2.689-9.637-4.237-15.2-4.237
				c-16.216,0-29.36,13.145-29.36,29.36c0,1.925,0.19,3.804,0.544,5.625c-0.183-0.005-0.36-0.027-0.544-0.027
				c-9.68,0-17.526,7.846-17.526,17.526s7.847,17.526,17.526,17.526c2.932,0,5.689-0.729,8.118-2.002
				c4.31,14.756,17.931,25.54,34.079,25.54c13.114,0,24.561-7.115,30.71-17.691c5.365,7.015,13.817,11.544,23.331,11.544
				c15.841,0,28.744-12.547,29.332-28.245C1451.434,253.195,1459.365,243.915,1459.365,232.781z"/>
			<path style="fill:#102A54;" d="M1361.539,294.045c-15.741,0-29.867-10.213-34.882-25.02c-2.318,0.984-4.771,1.482-7.315,1.482
				c-10.391,0-18.845-8.454-18.845-18.844c0-10.05,7.91-18.289,17.832-18.817c-0.203-1.432-0.305-2.874-0.305-4.306
				c0-16.916,13.763-30.679,30.679-30.679c5.099,0,10.097,1.263,14.55,3.665c5.789-13.339,19.178-22.197,33.795-22.197
				c19.031,0,34.81,14.441,36.646,33.181c2.178-0.628,4.433-0.945,6.726-0.945c13.379,0,24.265,10.885,24.265,24.265
				c0,11.198-7.724,20.952-18.509,23.575c-1.124,16.058-14.371,28.492-30.595,28.492c-8.997,0-17.344-3.837-23.183-10.592
				C1385.628,287.676,1373.973,294.045,1361.539,294.045z M1328.273,265.272l0.451,1.545c4.229,14.479,17.722,24.591,32.814,24.591
				c12.129,0,23.46-6.527,29.57-17.036l0.99-1.703l1.196,1.565c5.359,7.007,13.482,11.026,22.284,11.026
				c15.143,0,27.448-11.849,28.015-26.976l0.039-1.041l1.021-0.203c10.078-2.001,17.392-10.922,17.392-21.211
				c0-11.926-9.702-21.628-21.628-21.628c-2.564,0-5.074,0.444-7.459,1.321l-1.678,0.617l-0.093-1.786
				c-0.942-18.162-15.939-32.388-34.142-32.388c-14.045,0-26.871,8.811-31.914,21.924l-0.566,1.472l-1.348-0.818
				c-4.364-2.647-9.384-4.046-14.517-4.046c-15.462,0-28.042,12.579-28.042,28.042c0,1.789,0.175,3.597,0.52,5.374l0.314,1.617
				l-1.646-0.049c-0.097-0.002-0.192-0.009-0.287-0.016c-0.073-0.005-0.145-0.011-0.219-0.011c-8.937,0-16.208,7.271-16.208,16.207
				c0,8.937,7.271,16.207,16.208,16.207c2.637,0,5.163-0.622,7.506-1.851L1328.273,265.272z"/>
			<path style="fill:#102A54;" d="M1336.821,248.602c-0.493,0-0.966-0.278-1.192-0.753c-5.775-12.158-15.654-12.366-15.753-12.367
				c-0.728-0.005-1.314-0.6-1.309-1.328c0.005-0.725,0.594-1.309,1.318-1.309c0.003,0,0.006,0,0.009,0
				c0.472,0.003,11.639,0.237,18.117,13.873c0.312,0.657,0.032,1.444-0.625,1.756
				C1337.203,248.561,1337.011,248.602,1336.821,248.602z"/>
			<path style="fill:#102A54;" d="M1439.177,260.912c-4.276,0-10.167-1.768-15.991-9.23c-0.448-0.574-0.346-1.402,0.228-1.85
				c0.574-0.447,1.402-0.346,1.85,0.228c9.621,12.326,18.896,7.185,18.989,7.132c0.63-0.364,1.437-0.146,1.8,0.484
				c0.364,0.63,0.147,1.436-0.484,1.8C1445.517,259.507,1442.988,260.912,1439.177,260.912z"/>
			<path style="fill:#102A54;" d="M1375.263,234.956c-0.438,0-0.865-0.217-1.116-0.615c-0.389-0.615-0.205-1.429,0.411-1.818
				c4.204-2.655,6.713-7.204,6.713-12.169c0-7.93-6.451-14.381-14.381-14.381c-5.793,0-10.995,3.448-13.252,8.784
				c-0.283,0.671-1.056,0.986-1.728,0.7c-0.67-0.283-0.984-1.057-0.7-1.728c2.67-6.314,8.825-10.393,15.68-10.393
				c9.384,0,17.018,7.634,17.018,17.018c0,5.875-2.969,11.257-7.943,14.398C1375.747,234.89,1375.503,234.956,1375.263,234.956z"/>
			<path style="fill:#102A54;" d="M1392.732,274.962c-0.62,0-1.243-0.033-1.868-0.101c-5.841-0.633-10.872-4.165-13.458-9.448
				c-0.32-0.654-0.049-1.443,0.604-1.764c0.654-0.321,1.443-0.049,1.764,0.604c2.186,4.465,6.438,7.451,11.375,7.986
				c3.822,0.415,7.571-0.683,10.564-3.091c2.993-2.408,4.87-5.837,5.284-9.656c0.078-0.724,0.726-1.25,1.453-1.169
				c0.724,0.079,1.247,0.729,1.168,1.453c-0.49,4.52-2.71,8.577-6.253,11.426C1400.313,273.658,1396.594,274.962,1392.732,274.962z"
				/>
			<path style="fill:#102A54;" d="M1407.37,195.099c-0.258,0-0.52-0.076-0.748-0.233c-4.768-3.293-11.007-3.41-15.896-0.302
				c-0.615,0.392-1.429,0.209-1.819-0.405c-0.391-0.614-0.209-1.429,0.405-1.819c5.784-3.679,13.167-3.538,18.808,0.356
				c0.599,0.414,0.75,1.235,0.336,1.834C1408.2,194.9,1407.789,195.099,1407.37,195.099z"/>
		</g>
		<g>
			<g>
				<path style="fill:#F4F7FD;" d="M2399.436,211.644c13.193,31.223,13.131,101.674-18.092,114.867
					c-31.223,13.193-81.783-35.869-94.976-67.092c-13.193-31.223,1.423-67.229,32.646-80.422
					C2350.237,165.805,2386.243,180.421,2399.436,211.644z"/>
				<path style="fill:#80C0FF;" d="M2404.928,310.118L2404.928,310.118c-1.929-4.566-7.194-6.703-11.76-4.774l-35.242,14.891
					c-4.566,1.929-6.703,7.194-4.774,11.76v0c1.929,4.566,7.194,6.703,11.76,4.774c-4.566,1.929-6.703,7.194-4.774,11.76
					s7.194,6.703,11.76,4.774l2.553-1.079c3.516,8.322,13.113,12.217,21.435,8.701c8.321-3.516,12.217-13.113,8.701-21.434
					l2.553-1.079c4.566-1.929,6.703-7.194,4.774-11.76c-1.929-4.566-7.194-6.703-11.76-4.774
					C2404.72,319.949,2406.857,314.684,2404.928,310.118z"/>
				<path style="fill:#102A54;" d="M2386.237,365.259c-2.292,0-4.586-0.443-6.773-1.332c-3.944-1.601-7.127-4.476-9.104-8.186
					l-1.103,0.466c-5.396,2.278-11.639-0.254-13.92-5.649c-1.467-3.471-0.94-7.294,1.059-10.186c-0.765-0.128-1.52-0.342-2.255-0.64
					c-2.629-1.067-4.685-3.094-5.789-5.708c-0.873-2.067-1.067-4.311-0.578-6.463c-27.384-11.285-56.684-43.576-66.206-66.114
					c-13.524-32.009,1.514-69.055,33.522-82.58c32.013-13.526,69.056,1.513,82.581,33.522l0,0
					c9.522,22.537,12.255,66.054,1.26,93.555c1.885,1.149,3.359,2.853,4.231,4.919c1.104,2.613,1.125,5.5,0.058,8.129
					c-0.298,0.733-0.67,1.422-1.108,2.058c0.762,0.128,1.515,0.341,2.248,0.639c2.629,1.067,4.685,3.094,5.789,5.707
					c1.104,2.613,1.125,5.501,0.058,8.129c-1.067,2.629-3.094,4.685-5.707,5.789l-1.104,0.467c1.282,4.004,1.125,8.29-0.476,12.234
					c-1.81,4.456-5.245,7.941-9.675,9.813C2390.989,364.782,2388.613,365.259,2386.237,365.259z M2372.044,351.453l0.642,1.518
					c1.529,3.619,4.376,6.426,8.018,7.904c3.639,1.477,7.639,1.45,11.258-0.08c3.62-1.529,6.427-4.376,7.905-8.017
					c1.478-3.641,1.449-7.639-0.08-11.258l-0.642-1.518l4.071-1.72c1.803-0.762,3.201-2.18,3.938-3.993
					c0.736-1.813,0.722-3.805-0.04-5.608c-1.571-3.722-5.883-5.468-9.601-3.897l-1.283-3.035c1.803-0.762,3.201-2.18,3.938-3.993
					s0.722-3.805-0.04-5.607c-0.75-1.777-2.146-3.165-3.932-3.908l-1.533-0.639l0.651-1.528
					c11.352-26.644,8.753-70.081-0.678-92.401l0,0c-12.819-30.337-47.931-44.586-78.263-31.77
					c-30.336,12.818-44.588,47.927-31.771,78.263c9.431,22.32,38.767,54.46,65.784,64.891l1.55,0.599l-0.611,1.545
					c-0.712,1.797-0.689,3.765,0.062,5.542c0.762,1.803,2.18,3.201,3.993,3.937c1.813,0.736,3.805,0.721,5.607-0.04l1.283,3.035
					c-3.722,1.573-5.471,5.88-3.898,9.602c1.573,3.721,5.881,5.471,9.602,3.897L2372.044,351.453z"/>
				<path style="fill:#102A54;" d="M2311.549,172.132c-0.643,0-1.253-0.378-1.519-1.007l-8.212-19.435
					c-0.354-0.838,0.038-1.805,0.876-2.159c0.839-0.355,1.805,0.038,2.159,0.877l8.212,19.435c0.354,0.838-0.038,1.805-0.876,2.159
					C2311.979,172.09,2311.763,172.132,2311.549,172.132z"/>
				<g>
					<path style="fill:#102A54;" d="M2406.392,212.525c-0.643,0-1.253-0.378-1.519-1.007c-0.354-0.838,0.038-1.805,0.876-2.159
						l19.436-8.212c0.84-0.354,1.806,0.038,2.159,0.876c0.354,0.838-0.038,1.805-0.876,2.159l-19.436,8.212
						C2406.822,212.483,2406.605,212.525,2406.392,212.525z"/>
					<path style="fill:#102A54;" d="M2256.98,274.988c-0.381,0-0.743-0.224-0.901-0.598c-0.21-0.497,0.022-1.072,0.521-1.282
						l19.435-8.212c0.497-0.208,1.071,0.022,1.282,0.521c0.21,0.498-0.022,1.072-0.521,1.282l-19.435,8.212
						C2257.237,274.963,2257.107,274.988,2256.98,274.988z"/>
				</g>
				<g>
					<path style="fill:#102A54;" d="M2432.697,265.976c-0.206,0-0.416-0.039-0.619-0.122l-19.55-7.936
						c-0.843-0.342-1.249-1.303-0.906-2.146c0.342-0.843,1.301-1.25,2.146-0.907l19.55,7.936c0.843,0.342,1.249,1.303,0.906,2.146
						C2433.965,265.588,2433.349,265.976,2432.697,265.976z"/>
					<path style="fill:#102A54;" d="M2279.396,206.24c-0.206,0-0.416-0.039-0.619-0.122l-19.549-7.936
						c-0.843-0.342-1.249-1.303-0.906-2.146c0.342-0.843,1.301-1.251,2.146-0.907l19.549,7.936c0.843,0.342,1.249,1.303,0.906,2.146
						C2280.664,205.852,2280.048,206.24,2279.396,206.24z"/>
				</g>
				<g>
					<path style="fill:#102A54;" d="M2360.571,171.94c-0.206,0-0.416-0.039-0.619-0.122c-0.843-0.342-1.249-1.303-0.906-2.146
						l7.936-19.549c0.342-0.843,1.301-1.251,2.146-0.907c0.843,0.342,1.249,1.303,0.906,2.146l-7.936,19.549
						C2361.839,171.552,2361.223,171.94,2360.571,171.94z"/>
					<path style="fill:#102A54;" d="M2297.611,326.008c-0.206,0-0.416-0.039-0.619-0.122c-0.843-0.342-1.249-1.303-0.906-2.146
						l7.936-19.549c0.342-0.843,1.301-1.249,2.146-0.907c0.843,0.342,1.249,1.303,0.906,2.146l-7.936,19.549
						C2298.879,325.62,2298.263,326.008,2297.611,326.008z"/>
				</g>
			</g>
			
				<ellipse transform="matrix(0.3761 -0.9266 0.9266 0.3761 1233.2393 2326.1221)" style="fill:#80C0FF;" cx="2343.99" cy="247.262" rx="23.455" ry="23.455"/>
		</g>
	</g>
</g>
<g>
	<path style="fill:#102A54;" d="M761.072,1189.467c-7.781,0-11.43-8.599-14.958-16.914c-3.291-7.758-6.401-15.086-12.196-15.086
		c-5.795,0-8.903,7.328-12.194,15.086c-3.527,8.315-7.175,16.914-14.956,16.914c-7.78,0-11.428-8.599-14.956-16.914
		c-3.291-7.758-6.399-15.086-12.193-15.086c-5.794,0-8.903,7.328-12.194,15.086c-3.527,8.315-7.175,16.914-14.956,16.914
		c-7.78,0-11.428-8.599-14.955-16.914c-3.291-7.758-6.399-15.086-12.194-15.086c-5.794,0-8.901,7.328-12.192,15.086
		c-3.527,8.315-7.174,16.914-14.954,16.914s-11.426-8.599-14.953-16.914c-3.291-7.758-6.398-15.086-12.191-15.086
		c-0.829,0-1.5-0.672-1.5-1.5s0.671-1.5,1.5-1.5c7.779,0,11.426,8.599,14.953,16.914c3.291,7.758,6.398,15.086,12.191,15.086
		c5.794,0,8.901-7.328,12.192-15.086c3.527-8.315,7.174-16.914,14.954-16.914c7.78,0,11.428,8.599,14.956,16.914
		c3.291,7.758,6.399,15.086,12.193,15.086c5.794,0,8.903-7.328,12.194-15.086c3.527-8.315,7.175-16.914,14.956-16.914
		c7.78,0,11.428,8.599,14.955,16.914c3.291,7.758,6.399,15.086,12.194,15.086c5.794,0,8.903-7.328,12.194-15.086
		c3.528-8.315,7.175-16.914,14.956-16.914c7.782,0,11.43,8.599,14.958,16.914c3.292,7.758,6.4,15.086,12.196,15.086
		s8.905-7.328,12.196-15.086c3.528-8.315,7.176-16.914,14.958-16.914c0.829,0,1.5,0.672,1.5,1.5s-0.671,1.5-1.5,1.5
		c-5.795,0-8.905,7.328-12.196,15.086C772.501,1180.868,768.854,1189.467,761.072,1189.467z"/>
	<path style="fill:#102A54;" d="M2129.729,1046.666c-6.432,0-9.327-8.654-12.127-17.023c-2.463-7.363-5.01-14.977-9.282-14.977
		c-4.271,0-6.818,7.613-9.28,14.976c-2.8,8.369-5.694,17.024-12.127,17.024c-6.432,0-9.326-8.655-12.126-17.024
		c-2.462-7.362-5.009-14.976-9.279-14.976c-4.271,0-6.818,7.613-9.28,14.976c-2.8,8.37-5.694,17.024-12.126,17.024
		s-9.326-8.655-12.126-17.024c-2.462-7.362-5.009-14.976-9.279-14.976c-4.271,0-6.817,7.613-9.279,14.977
		c-2.799,8.369-5.693,17.023-12.124,17.023s-9.325-8.654-12.124-17.023c-2.462-7.363-5.008-14.977-9.279-14.977
		c-0.828,0-1.5-0.672-1.5-1.5c0-0.828,0.672-1.5,1.5-1.5c6.432,0,9.325,8.655,12.125,17.024c2.462,7.362,5.008,14.976,9.278,14.976
		s6.816-7.613,9.278-14.976c2.8-8.369,5.693-17.024,12.125-17.024c6.431,0,9.325,8.654,12.125,17.023
		c2.462,7.363,5.009,14.977,9.28,14.977s6.818-7.613,9.28-14.976c2.8-8.37,5.694-17.024,12.126-17.024
		c6.431,0,9.325,8.654,12.125,17.023c2.462,7.363,5.009,14.977,9.28,14.977c4.272,0,6.818-7.613,9.281-14.977
		c2.8-8.369,5.694-17.023,12.126-17.023c6.433,0,9.328,8.655,12.128,17.024c2.463,7.362,5.009,14.976,9.281,14.976
		s6.819-7.613,9.282-14.976c2.8-8.37,5.695-17.024,12.128-17.024c0.828,0,1.5,0.672,1.5,1.5c0,0.828-0.672,1.5-1.5,1.5
		c-4.272,0-6.819,7.613-9.282,14.976C2139.058,1038.012,2136.162,1046.666,2129.729,1046.666z"/>
	<path style="fill:#102A54;" d="M2824.31,1145.201c-5.396,0-7.991-4.33-10.501-8.518c-2.306-3.848-4.483-7.482-8.675-7.482
		c-4.19,0-6.368,3.635-8.674,7.482c-2.509,4.188-5.104,8.518-10.5,8.518c-5.396,0-7.99-4.33-10.499-8.518
		c-2.306-3.848-4.482-7.482-8.673-7.482c-4.188,0-6.365,3.635-8.67,7.482c-2.508,4.188-5.102,8.518-10.496,8.518
		c-5.396,0-7.989-4.33-10.498-8.518c-2.306-3.848-4.482-7.482-8.673-7.482c-4.188,0-6.366,3.634-8.671,7.482
		c-2.509,4.188-5.103,8.518-10.498,8.518s-7.988-4.33-10.497-8.518c-2.305-3.848-4.482-7.482-8.671-7.482
		c-0.588,0-1.064-0.477-1.064-1.064s0.477-1.064,1.064-1.064c5.396,0,7.988,4.33,10.497,8.518c2.305,3.848,4.482,7.482,8.671,7.482
		c4.189,0,6.367-3.635,8.672-7.482c2.509-4.188,5.103-8.518,10.497-8.518c5.396,0,7.99,4.33,10.499,8.518
		c2.305,3.849,4.482,7.482,8.672,7.482c4.188,0,6.365-3.635,8.67-7.482c2.508-4.188,5.102-8.518,10.496-8.518
		c5.396,0,7.99,4.33,10.499,8.518c2.306,3.848,4.482,7.482,8.673,7.482s6.368-3.635,8.674-7.482c2.509-4.188,5.104-8.518,10.5-8.518
		s7.991,4.33,10.501,8.518c2.306,3.848,4.483,7.482,8.675,7.482s6.369-3.635,8.675-7.482c2.51-4.188,5.104-8.518,10.501-8.518
		c0.588,0,1.064,0.477,1.064,1.064s-0.477,1.064-1.064,1.064c-4.191,0-6.369,3.635-8.675,7.482
		C2832.301,1140.871,2829.706,1145.201,2824.31,1145.201z"/>
	<path style="fill:#102A54;" d="M1222.731,1594.09c-9.045,0-13.504-7.44-17.815-14.636c-4.21-7.027-8.187-13.664-16.099-13.664
		c-7.911,0-11.887,6.637-16.097,13.664c-4.311,7.195-8.769,14.636-17.813,14.636s-13.502-7.44-17.813-14.636
		c-4.21-7.027-8.187-13.664-16.097-13.664s-11.887,6.637-16.097,13.664c-4.311,7.195-8.769,14.636-17.813,14.636
		c-9.044,0-13.501-7.44-17.812-14.636c-4.209-7.027-8.186-13.664-16.097-13.664c-7.909,0-11.885,6.637-16.094,13.664
		c-4.311,7.195-8.767,14.636-17.81,14.636c-9.043,0-13.5-7.44-17.81-14.636c-4.209-7.027-8.185-13.664-16.094-13.664
		c-0.552,0-1-0.447-1-1s0.448-1,1-1c9.042,0,13.499,7.44,17.81,14.636c4.209,7.027,8.185,13.664,16.094,13.664
		c7.909,0,11.885-6.637,16.094-13.664c4.311-7.195,8.767-14.636,17.81-14.636c9.044,0,13.501,7.44,17.813,14.636
		c4.209,7.027,8.186,13.664,16.096,13.664c7.911,0,11.887-6.637,16.097-13.664c4.311-7.195,8.769-14.636,17.813-14.636
		s13.502,7.44,17.813,14.636c4.21,7.027,8.187,13.664,16.098,13.664s11.887-6.637,16.097-13.664
		c4.311-7.195,8.768-14.636,17.813-14.636c9.045,0,13.503,7.44,17.815,14.636c4.21,7.027,8.187,13.664,16.099,13.664
		c7.912,0,11.889-6.637,16.1-13.664c4.312-7.195,8.77-14.636,17.815-14.636c0.552,0,1,0.447,1,1s-0.448,1-1,1
		c-7.912,0-11.889,6.637-16.099,13.664C1236.235,1586.649,1231.776,1594.09,1222.731,1594.09z"/>
	<path style="fill:#102A54;" d="M813.823,684.855c-5.397,0-7.992-4.33-10.501-8.518c-2.306-3.848-4.484-7.482-8.675-7.482
		c-4.19,0-6.368,3.634-8.673,7.482c-2.509,4.188-5.104,8.518-10.5,8.518c-5.396,0-7.99-4.33-10.499-8.518
		c-2.305-3.848-4.483-7.482-8.673-7.482c-4.188,0-6.365,3.634-8.669,7.482c-2.508,4.188-5.102,8.518-10.496,8.518
		c-5.396,0-7.99-4.33-10.498-8.518c-2.305-3.848-4.482-7.482-8.672-7.482c-4.189,0-6.367,3.634-8.671,7.482
		c-2.508,4.188-5.102,8.518-10.497,8.518s-7.989-4.33-10.497-8.518c-2.305-3.848-4.482-7.482-8.671-7.482
		c-0.588,0-1.064-0.477-1.064-1.064c0-0.588,0.476-1.064,1.064-1.064c5.395,0,7.989,4.33,10.497,8.518
		c2.305,3.848,4.482,7.482,8.671,7.482s6.366-3.634,8.671-7.482c2.508-4.188,5.102-8.518,10.497-8.518
		c5.396,0,7.99,4.33,10.499,8.518c2.305,3.848,4.482,7.482,8.672,7.482c4.188,0,6.365-3.634,8.67-7.482
		c2.508-4.188,5.101-8.518,10.496-8.518c5.397,0,7.991,4.33,10.5,8.518c2.305,3.848,4.483,7.482,8.673,7.482
		c4.19,0,6.368-3.635,8.674-7.483c2.509-4.187,5.104-8.517,10.5-8.517c5.397,0,7.992,4.33,10.501,8.518
		c2.306,3.848,4.484,7.482,8.675,7.482c4.191,0,6.369-3.634,8.675-7.482c2.51-4.188,5.105-8.518,10.501-8.518
		c0.588,0,1.064,0.477,1.064,1.064c0,0.588-0.477,1.064-1.064,1.064c-4.191,0-6.37,3.635-8.676,7.483
		C821.815,680.525,819.22,684.855,813.823,684.855z"/>
</g>
<g>
	
		<ellipse transform="matrix(0.2298 -0.9732 0.9732 0.2298 752.2928 3114.4514)" style="fill:#80C0FF;" cx="2343.785" cy="1081.944" rx="56.455" ry="56.455"/>
	<circle style="fill:#80C0FF;" cx="2725.96" cy="1279.962" r="35.846"/>
	
		<ellipse transform="matrix(0.2298 -0.9732 0.9732 0.2298 1676.8496 3197.7974)" style="fill:#80C0FF;" cx="2858.721" cy="539.503" rx="17.923" ry="17.923"/>
	
		<ellipse transform="matrix(0.2258 -0.9742 0.9742 0.2258 -866.9371 1917.0968)" style="fill:#80C0FF;" cx="772.703" cy="1503.995" rx="40.564" ry="40.564"/>
	
		<ellipse transform="matrix(0.1436 -0.9896 0.9896 0.1436 60.4579 1758.6318)" style="fill:#80C0FF;" cx="1046.323" cy="844.385" rx="28.227" ry="28.228"/>
</g>
<g>
	<g>
		<g>
			<path style="fill:#102A54;" d="M1646.071,720.979c0,0,38.792-18.534,68.532,8.189c29.74,26.723,26.723,68.744,56.032,72.086
				c29.309,3.342,78.876,7.034,89.221,57.987c10.344,50.954-28.447,91.469-28.447,91.469h-213.579c0,0-33.463-46.686-16.732-113.744
				C1601.097,836.967,1589.783,744.343,1646.071,720.979z"/>
			<path style="fill:#FFC0B1;" d="M1698.287,942.263L1698.287,942.263c13.461,0,24.069-11.465,23.026-24.885l-6.251-80.411h-32.646
				l-7.132,80.154C1674.081,930.631,1684.724,942.263,1698.287,942.263z"/>
			<path style="fill:#FFC0B1;" d="M1678.972,769.909h-54.075c-3.741,0-6.625,3.298-6.127,7.006l0,0
				c2.996,22.275,3.584,44.782,2.302,67.221c-0.597,10.456,0.279,22.701,5.437,32.661c10.44,20.159,34.747,29.184,55.37,19.696
				c16.493-7.588,40.149-28.018,42.363-79.603C1725.345,791.237,1704.649,769.909,1678.972,769.909z"/>
			<path style="fill:#102A54;" d="M1663.124,845.472h-9.538c-1.509,0-2.898-0.689-3.812-1.89c-0.914-1.201-1.207-2.725-0.804-4.179
				l8.274-29.87c0.161-0.579,0.764-0.917,1.338-0.758c0.579,0.16,0.918,0.759,0.758,1.338l-8.274,29.87
				c-0.22,0.794-0.06,1.626,0.439,2.282c0.499,0.656,1.258,1.032,2.082,1.032h9.538c0.601,0,1.087,0.487,1.087,1.087
				C1664.211,844.985,1663.724,845.472,1663.124,845.472z"/>
			<path style="fill:#102A54;" d="M1670.859,812.927c0,2.896,2.348,5.244,5.244,5.244c2.896,0,5.244-2.348,5.244-5.244
				s-2.348-5.244-5.244-5.244C1673.207,807.683,1670.859,810.031,1670.859,812.927z"/>
			<circle style="fill:#102A54;" cx="1638.699" cy="811.892" r="5.244"/>
			<path style="fill:#102A54;" d="M1676.949,899.48c-0.458,0-0.883-0.291-1.033-0.749c-0.187-0.571,0.125-1.185,0.695-1.372
				c0.145-0.047,14.621-4.879,24.29-16.25c0.389-0.457,1.076-0.514,1.533-0.123c0.457,0.389,0.513,1.075,0.124,1.533
				c-10.078,11.852-24.655,16.707-25.271,16.908C1677.174,899.463,1677.061,899.48,1676.949,899.48z"/>
			<g>
				<defs>
					<path id="XMLID_12_" d="M2101.104,790.831l-161.598,99.938c-8.116,5.019-17.25,8.163-26.736,9.203l-163.276,17.894v0.001
						c-2.816-0.427-5.7-0.65-8.636-0.65h-109.676c-0.993,0-1.979,0.026-2.96,0.076l-158.042-17.32
						c-9.486-1.039-18.62-4.184-26.736-9.203l-161.598-99.938l-17.091,36.273l135.886,123.412
						c10.461,9.501,23.052,16.35,36.711,19.969l136.877,36.273l1.007,216.139h182.884l33.933-211.722l153.543-40.689
						c13.66-3.62,26.251-10.468,36.712-19.969l135.886-123.412L2101.104,790.831z"/>
				</defs>
				<use xlink:href="#XMLID_12_"  style="overflow:visible;fill:#E6515C;"/>
				<clipPath id="XMLID_00000003082555355295046020000001337612830226407850_">
					<use xlink:href="#XMLID_12_"  style="overflow:visible;"/>
				</clipPath>
				<g style="clip-path:url(#XMLID_00000003082555355295046020000001337612830226407850_);">
					<path style="fill:#FFFFFF;" d="M1560.771,1026.199c2.443,3.702,5.213,7.898,10.909,7.898c5.697,0,8.467-4.196,10.91-7.898
						c2.506-3.796,4.267-6.102,7.572-6.102s5.066,2.305,7.572,6.102c2.443,3.702,5.214,7.898,10.911,7.898s8.468-4.196,10.912-7.898
						c2.507-3.796,4.268-6.102,7.574-6.102s5.066,2.306,7.573,6.103c2.443,3.701,5.214,7.897,10.91,7.897
						c5.698,0,8.468-4.196,10.912-7.898c2.507-3.797,4.267-6.102,7.573-6.102s5.067,2.306,7.574,6.102
						c2.444,3.702,5.215,7.898,10.912,7.898c5.698,0,8.469-4.196,10.913-7.898c2.507-3.796,4.268-6.102,7.575-6.102
						c3.306,0,5.066,2.306,7.572,6.102c2.443,3.702,5.213,7.898,10.91,7.898c5.698,0,8.47-4.196,10.914-7.897
						c2.507-3.797,4.269-6.103,7.576-6.103s5.069,2.306,7.576,6.103c2.444,3.701,5.216,7.897,10.914,7.897
						c5.699,0,8.47-4.195,10.915-7.897c2.508-3.797,4.27-6.103,7.578-6.103s5.069,2.306,7.577,6.103
						c2.445,3.701,5.216,7.897,10.915,7.897c1.104,0,2-0.896,2-2s-0.896-2-2-2c-3.309,0-5.069-2.306-7.577-6.102
						c-2.445-3.701-5.216-7.898-10.915-7.898s-8.471,4.196-10.916,7.898c-2.508,3.796-4.269,6.102-7.577,6.102
						c-3.308,0-5.069-2.306-7.576-6.102c-2.444-3.701-5.216-7.898-10.914-7.898s-8.47,4.196-10.914,7.898
						c-2.507,3.797-4.269,6.102-7.576,6.102c-3.306,0-5.066-2.306-7.572-6.102c-2.443-3.702-5.213-7.898-10.91-7.898
						c-5.698,0-8.469,4.196-10.913,7.898c-2.507,3.796-4.268,6.102-7.575,6.102c-3.307,0-5.067-2.306-7.574-6.102
						c-2.444-3.702-5.215-7.898-10.912-7.898c-5.697,0-8.467,4.196-10.911,7.898c-2.507,3.797-4.268,6.102-7.574,6.102
						c-3.306,0-5.066-2.305-7.572-6.102c-2.443-3.702-5.214-7.898-10.911-7.898s-8.468,4.196-10.912,7.898
						c-2.507,3.796-4.268,6.102-7.574,6.102s-5.066-2.306-7.573-6.102c-2.443-3.701-5.214-7.898-10.91-7.898
						c-5.697,0-8.467,4.196-10.91,7.898c-2.506,3.796-4.267,6.102-7.572,6.102c-3.306,0-5.065-2.306-7.571-6.102
						c-2.443-3.702-5.213-7.898-10.909-7.898c-1.104,0-2,0.896-2,2s0.896,2,2,2
						C1556.505,1020.098,1558.265,1022.404,1560.771,1026.199z"/>
					<path style="fill:#FFFFFF;" d="M1563.512,1054.911c2.443,3.702,5.213,7.898,10.909,7.898c5.697,0,8.467-4.196,10.91-7.898
						c2.506-3.797,4.266-6.102,7.571-6.102c3.307,0,5.066,2.306,7.573,6.102c2.443,3.702,5.214,7.898,10.911,7.898
						c5.697,0,8.468-4.196,10.912-7.898c2.507-3.796,4.268-6.102,7.574-6.102s5.066,2.306,7.573,6.103
						c2.443,3.701,5.214,7.897,10.91,7.897c5.698,0,8.468-4.196,10.912-7.898c2.507-3.797,4.267-6.102,7.573-6.102
						s5.067,2.306,7.574,6.102c2.444,3.702,5.215,7.898,10.912,7.898c5.698,0,8.469-4.196,10.913-7.898
						c2.507-3.796,4.268-6.102,7.575-6.102c3.306,0,5.066,2.306,7.572,6.102c2.443,3.702,5.213,7.898,10.91,7.898
						c5.698,0,8.47-4.196,10.914-7.897c2.507-3.797,4.269-6.103,7.576-6.103s5.069,2.306,7.576,6.103
						c2.444,3.701,5.216,7.897,10.914,7.897c5.699,0,8.47-4.195,10.915-7.897c2.508-3.797,4.27-6.103,7.578-6.103
						s5.069,2.306,7.577,6.103c2.445,3.701,5.216,7.897,10.915,7.897c1.104,0,2-0.896,2-2s-0.896-2-2-2
						c-3.309,0-5.069-2.306-7.577-6.103c-2.445-3.701-5.216-7.897-10.915-7.897s-8.471,4.196-10.916,7.898
						c-2.508,3.796-4.269,6.102-7.577,6.102c-3.308,0-5.069-2.306-7.576-6.103c-2.444-3.701-5.216-7.897-10.914-7.897
						c-5.698,0-8.47,4.196-10.914,7.897c-2.507,3.797-4.269,6.103-7.576,6.103c-3.306,0-5.067-2.306-7.572-6.102
						c-2.443-3.702-5.213-7.898-10.91-7.898c-5.698,0-8.469,4.196-10.913,7.898c-2.507,3.796-4.267,6.102-7.575,6.102
						c-3.307,0-5.067-2.306-7.574-6.102c-2.444-3.702-5.215-7.898-10.912-7.898s-8.467,4.196-10.911,7.897
						c-2.507,3.797-4.268,6.103-7.574,6.103c-3.306,0-5.066-2.305-7.572-6.102c-2.443-3.702-5.214-7.898-10.911-7.898
						s-8.468,4.196-10.912,7.898c-2.507,3.796-4.268,6.102-7.574,6.102c-3.307,0-5.066-2.306-7.573-6.102
						c-2.443-3.702-5.214-7.898-10.911-7.898c-5.696,0-8.466,4.196-10.909,7.898c-2.506,3.796-4.267,6.102-7.572,6.102
						s-5.065-2.305-7.571-6.102c-2.443-3.702-5.213-7.898-10.91-7.898c-1.104,0-2,0.896-2,2s0.896,2,2,2
						C1559.245,1048.81,1561.006,1051.115,1563.512,1054.911z"/>
					<path style="fill:#FFFFFF;" d="M1799.006,1087.523c-3.309,0-5.069-2.306-7.577-6.102c-2.445-3.702-5.217-7.898-10.916-7.898
						s-8.47,4.196-10.915,7.897c-2.508,3.797-4.269,6.103-7.577,6.103c-3.308,0-5.069-2.306-7.576-6.103
						c-2.444-3.701-5.216-7.897-10.914-7.897s-8.47,4.196-10.914,7.897c-2.507,3.797-4.269,6.103-7.576,6.103
						c-3.306,0-5.066-2.306-7.572-6.102c-2.443-3.702-5.213-7.898-10.91-7.898c-5.698,0-8.469,4.196-10.913,7.898
						c-2.507,3.796-4.268,6.102-7.575,6.102c-3.307,0-5.067-2.306-7.574-6.102c-2.444-3.702-5.215-7.898-10.912-7.898
						s-8.467,4.196-10.911,7.897c-2.507,3.797-4.268,6.103-7.574,6.103c-3.306,0-5.066-2.305-7.572-6.102
						c-2.443-3.702-5.214-7.898-10.911-7.898c-5.697,0-8.468,4.196-10.912,7.898c-2.507,3.796-4.268,6.102-7.574,6.102
						s-5.067-2.306-7.573-6.102c-2.443-3.702-5.214-7.898-10.911-7.898c-5.696,0-8.466,4.196-10.909,7.898
						c-2.506,3.796-4.267,6.102-7.572,6.102s-5.065-2.305-7.571-6.102c-2.443-3.702-5.213-7.898-10.91-7.898c-1.104,0-2,0.896-2,2
						s0.896,2,2,2c3.306,0,5.066,2.306,7.572,6.102c2.443,3.702,5.213,7.898,10.909,7.898c5.697,0,8.467-4.196,10.91-7.898
						c2.506-3.797,4.266-6.102,7.571-6.102c3.307,0,5.066,2.306,7.573,6.102c2.443,3.702,5.214,7.898,10.911,7.898
						s8.468-4.196,10.912-7.898c2.507-3.796,4.267-6.102,7.574-6.102c3.307,0,5.066,2.306,7.573,6.103
						c2.443,3.701,5.214,7.897,10.91,7.897c5.698,0,8.468-4.196,10.912-7.898c2.507-3.797,4.267-6.102,7.573-6.102
						s5.067,2.306,7.574,6.102c2.444,3.702,5.215,7.898,10.912,7.898c5.698,0,8.469-4.196,10.913-7.898
						c2.507-3.796,4.268-6.102,7.575-6.102c3.306,0,5.066,2.306,7.572,6.102c2.443,3.702,5.213,7.898,10.91,7.898
						c5.698,0,8.47-4.196,10.914-7.897c2.507-3.797,4.269-6.103,7.576-6.103s5.069,2.306,7.576,6.103
						c2.444,3.701,5.216,7.897,10.914,7.897c5.699,0,8.47-4.196,10.915-7.897c2.508-3.797,4.269-6.103,7.577-6.103
						s5.07,2.306,7.578,6.103c2.445,3.702,5.216,7.897,10.915,7.897c1.104,0,2-0.896,2-2S1800.111,1087.523,1799.006,1087.523z"/>
				</g>
			</g>
			<path style="fill:#102A54;" d="M1684.05,762.185c0,0-24.723,43.492-71.163,47.639c0,0-21.382-46.636,29.401-57.662
				C1693.071,741.136,1684.05,762.185,1684.05,762.185z"/>
			<path style="fill:#102A54;" d="M1656.732,862.464c-0.158,0-0.252-0.004-0.275-0.004c-0.6-0.025-1.066-0.532-1.041-1.132
				s0.533-1.076,1.131-1.041c0.64,0.025,15.147,0.362,23.835-16.402c0.277-0.533,0.933-0.742,1.466-0.465
				c0.533,0.276,0.741,0.933,0.465,1.466c-4.876,9.409-11.615,13.686-16.41,15.618
				C1661.383,862.324,1657.743,862.464,1656.732,862.464z"/>
			<path style="fill:#102A54;" d="M1676.103,764.637c0,0-0.571,40.772,33.55,60.435l22.642,14.261
				C1732.296,839.334,1752.255,763.017,1676.103,764.637z"/>
			<g>
				<ellipse style="fill:#FFC0B1;" cx="1721.384" cy="823.168" rx="11.149" ry="15.485"/>
				<path style="fill:#102A54;" d="M1719.604,830.898c-0.439,0-0.852-0.268-1.017-0.702c-0.117-0.308-2.788-7.596,2.961-12.829
					c0.444-0.404,1.131-0.372,1.536,0.072c0.404,0.444,0.372,1.132-0.072,1.536c-4.668,4.248-2.415,10.389-2.392,10.45
					c0.213,0.562-0.07,1.19-0.631,1.402C1719.862,830.875,1719.731,830.898,1719.604,830.898z"/>
			</g>
			<path style="fill:#FFC0B1;" d="M1657.811,917.216c0,21.845,17.709,39.553,39.553,39.553c21.845,0,39.553-17.708,39.553-39.553
				H1657.811z"/>
		</g>
		<g>
			<g>
				<path style="fill:#102A54;" d="M1779.162,1353.281c-1.886-64.127-21.042-130.385-21.042-130.385h-108.239h-74.645
					c0,0-134.979,203.45-139.978,220.116c-5,16.666-116.385,250.093-116.385,250.093l45.743,21.566l162.305-233.326
					c0,0,62.197-55.498,122.118-116.728l-2.495,420.478h44.93C1691.474,1785.094,1781.049,1417.408,1779.162,1353.281z"/>
				<polygon style="fill:#0C203F;" points="1649.04,1364.617 1649.04,1302.93 1526.922,1481.345 				"/>
			</g>
			<g>
				<g>
					<path style="fill:#102A54;" d="M1681.133,1807.453h-27.915l-7.446,10.527l-41.332,15.499c-5.534,2.075-9.2,7.365-9.2,13.276
						l0,0h90.947c4.455,0,7.75-4.147,6.742-8.487L1681.133,1807.453z"/>
				</g>
				<polygon style="fill:#FFC0B1;" points="1654.79,1785.094 1653.218,1807.453 1681.133,1807.453 1684.693,1785.094 				"/>
			</g>
			<g>
				<g>
					<path style="fill:#102A54;" d="M1338.22,1735.583l-26.04-10.058l-10.739,7.138l-44.14-0.433
						c-5.91-0.058-11.236,3.556-13.365,9.069l0,0l84.839,32.768c4.156,1.605,8.723-1.077,9.347-5.488L1338.22,1735.583z"/>
				</g>
				<polygon style="fill:#FFC0B1;" points="1327.96,1697.407 1312.18,1725.525 1338.22,1735.583 1356.96,1711.061 				"/>
			</g>
		</g>
		<g>
			<path style="fill:#FFC0B1;" d="M2103.803,796.559l7.779-5.363l11.529-50.344l0,0c5.017,1.5,8.466,6.102,8.497,11.338
				l0.136,22.959l51.586-22.076c3.133-1.341,6.598,1.029,6.483,4.435l-0.65,19.323c-0.312,9.282-6.139,17.48-14.802,20.827
				l-29.976,11.579l-29.846,10.106L2103.803,796.559z"/>
			<path style="fill:#102A54;" d="M2131.744,802.649c-0.099,0-0.199-0.014-0.299-0.042c-0.576-0.164-0.91-0.765-0.746-1.341
				c3.295-11.568,0.021-25.725-0.013-25.867c-0.138-0.583,0.224-1.168,0.807-1.306c0.58-0.14,1.168,0.222,1.307,0.806
				c0.142,0.6,3.44,14.84-0.013,26.961C2132.651,802.337,2132.217,802.649,2131.744,802.649z"/>
		</g>
		<g>
			<path style="fill:#FFC0B1;" d="M1279.176,796.353l-7.779-5.363l-11.529-50.344l0,0c-5.017,1.5-8.466,6.102-8.497,11.338
				l-0.136,22.959l-51.586-22.076c-3.133-1.341-6.598,1.029-6.483,4.435l0.65,19.323c0.312,9.282,6.139,17.48,14.802,20.827
				l29.976,11.579l29.846,10.106L1279.176,796.353z"/>
			<path style="fill:#102A54;" d="M1251.235,802.443c-0.473,0-0.908-0.312-1.043-0.789c-3.453-12.122-0.155-26.362-0.013-26.962
				c0.139-0.583,0.718-0.946,1.307-0.806c0.583,0.138,0.944,0.723,0.807,1.306c-0.034,0.142-3.308,14.299-0.013,25.867
				c0.165,0.577-0.17,1.177-0.747,1.341C1251.434,802.429,1251.333,802.443,1251.235,802.443z"/>
		</g>
	</g>
	<g>
		<path style="fill:#102A54;" d="M1574.229,1007.846c-0.51,0-0.964-0.36-1.066-0.879l-5.256-26.834
			c-0.116-0.589,0.269-1.161,0.858-1.276c0.591-0.121,1.16,0.269,1.276,0.858l5.256,26.834c0.116,0.589-0.269,1.16-0.858,1.276
			C1574.368,1007.839,1574.297,1007.846,1574.229,1007.846z"/>
		<path style="fill:#102A54;" d="M1792.055,1012.263c-0.066,0-0.134-0.007-0.202-0.019c-0.59-0.111-0.979-0.68-0.867-1.27
			l4.34-23.056c0.11-0.59,0.676-0.982,1.27-0.867c0.59,0.111,0.979,0.679,0.867,1.27l-4.34,23.056
			C1793.024,1011.898,1792.567,1012.263,1792.055,1012.263z"/>
	</g>
</g>
</svg>
